<svg width="637" height="637" viewBox="0 0 637 637" fill="none" xmlns="http://www.w3.org/2000/svg">
<path d="M408.276 185.644C406.79 184.37 405.304 183.309 403.817 182.247L158.155 427.909C159.216 429.395 160.49 430.882 161.552 432.368L408.064 185.857L408.276 185.644Z" fill="#36BEEC"/>
<path d="M348.19 154.003C346.067 153.366 344.156 152.941 342.033 152.304L128.431 365.906C128.856 368.029 129.493 369.94 130.13 372.063L348.19 154.003Z" fill="#36BEEC"/>
<path d="M390.446 172.902C388.747 171.84 387.261 170.991 385.562 169.929L146.057 409.433C146.907 411.132 147.968 412.618 149.03 414.317L390.446 172.902Z" fill="#36BEEC"/>
<path d="M370.488 162.285C368.577 161.436 366.878 160.587 364.967 159.95L136.078 388.839C136.927 390.75 137.564 392.449 138.414 394.36L370.488 162.285Z" fill="#36BEEC"/>
<path d="M323.135 148.695C320.8 148.27 318.464 148.058 316.128 147.846L123.76 340.213C123.972 342.549 124.184 344.885 124.609 347.22L323.135 148.695Z" fill="#36BEEC"/>
<path d="M422.295 198.168C421.658 197.531 421.021 196.894 420.384 196.257L172.385 444.255C173.022 444.892 173.659 445.529 174.296 446.166C174.933 446.803 175.57 447.44 176.207 448.077L424.204 200.079C423.569 199.442 422.932 198.805 422.295 198.168Z" fill="#36BEEC"/>
<path d="M294.47 146.789C291.71 146.789 288.95 147.001 286.191 147.213L123.335 310.069C123.123 312.83 123.123 315.59 122.91 318.35L294.47 146.789Z" fill="#36BEEC"/>
<path d="M127.16 283.525L259.652 151.034C256.042 151.883 252.645 152.732 249.035 153.794L129.708 273.121C128.647 276.518 127.797 280.128 126.948 283.738L127.16 283.525Z" fill="#36BEEC"/>
<path d="M473.256 334.27C473.468 331.51 473.468 328.751 473.68 325.991L302.119 497.55C304.879 497.55 307.64 497.337 310.4 497.125L473.256 334.27Z" fill="#36BEEC"/>
<path d="M472.614 304.331C472.402 301.996 472.19 299.66 471.765 297.324L273.238 495.85C275.573 496.275 277.909 496.487 280.245 496.699L472.614 304.331Z" fill="#36BEEC"/>
<path d="M209.118 171.205C196.59 178.637 184.912 187.555 174.084 198.383C163.467 209 154.337 220.89 146.906 233.417L208.905 171.418L209.118 171.205Z" fill="#36BEEC"/>
<path d="M466.667 371.43C467.728 368.033 468.578 364.423 469.427 360.813L336.935 493.305C340.545 492.456 343.942 491.606 347.552 490.545L466.879 371.218L466.667 371.43Z" fill="#36BEEC"/>
<path d="M387.258 473.344C399.786 465.912 411.464 456.994 422.293 446.165C432.91 435.548 442.038 423.658 449.47 411.13L387.471 473.131L387.258 473.344Z" fill="#36BEEC"/>
<path d="M450.321 234.901C449.472 233.202 448.41 231.716 447.348 230.017L205.931 471.434C207.63 472.496 209.116 473.345 210.815 474.407L450.321 234.901Z" fill="#36BEEC"/>
<path d="M438.216 216.643C437.154 215.157 435.88 213.67 434.818 212.184L188.306 458.696C189.792 459.97 191.278 461.032 192.764 462.094L438.428 216.431L438.216 216.643Z" fill="#36BEEC"/>
<path d="M467.945 278.43C467.308 276.307 466.884 274.396 466.247 272.272L248.187 490.333C250.31 490.97 252.221 491.394 254.344 492.031L467.945 278.43Z" fill="#36BEEC"/>
<path d="M460.513 255.496C459.663 253.585 459.026 251.886 458.177 249.975L226.103 482.047C228.014 482.896 229.713 483.745 231.624 484.383L460.513 255.496Z" fill="#36BEEC"/>
</svg>
