<?xml version="1.0"?>
<svg xmlns="http://www.w3.org/2000/svg" xmlns:xlink="http://www.w3.org/1999/xlink" xmlns:svgjs="http://svgjs.com/svgjs" version="1.1" width="512" height="512" x="0" y="0" viewBox="0 0 64 64" style="enable-background:new 0 0 512 512" xml:space="preserve" class=""><g><g xmlns="http://www.w3.org/2000/svg" id="outline"><path d="m54 36a3.928 3.928 0 0 0 -1.528.309 3 3 0 0 0 -5.332.784 4 4 0 0 0 .86 7.907 3.871 3.871 0 0 0 .528-.036 3.992 3.992 0 0 0 7.445-1.5 3.992 3.992 0 0 0 -1.973-7.464zm.653 5.878a1 1 0 0 0 -.67.993.6.6 0 0 0 .017.129 1.994 1.994 0 0 1 -3.92.519 1 1 0 0 0 -1.338-.666 2 2 0 1 1 -.742-3.853 1 1 0 0 0 1-1 1 1 0 0 1 1-1 .99.99 0 0 1 .984.9 1 1 0 0 0 1.671.634 1.992 1.992 0 1 1 2 3.346z" fill="#e1f2ff" data-original="#000000" style="" class=""/><path d="m42 51a3 3 0 0 0 -2.871 2.129 3 3 0 0 0 -.036 5.731 4 4 0 1 0 5.862-4.346 2.941 2.941 0 0 0 .045-.514 3 3 0 0 0 -3-3zm3 7a2 2 0 0 1 -4 0 1 1 0 0 0 -1-1 1 1 0 0 1 0-2 1 1 0 0 0 1-1 1 1 0 0 1 2 0 .986.986 0 0 1 -.163.542 1 1 0 0 0 .615 1.517 1.985 1.985 0 0 1 1.548 1.941z" fill="#e1f2ff" data-original="#000000" style="" class=""/><path d="m39 37a3 3 0 1 0 3 3 3 3 0 0 0 -3-3zm0 4a1 1 0 1 1 1-1 1 1 0 0 1 -1 1z" fill="#e1f2ff" data-original="#000000" style="" class=""/><path d="m54 52a3 3 0 1 0 -3 3 3 3 0 0 0 3-3zm-4 0a1 1 0 1 1 1 1 1 1 0 0 1 -1-1z" fill="#e1f2ff" data-original="#000000" style="" class=""/><path d="m36.758 46.03.484 1.94a33.009 33.009 0 0 0 6.205-2.07l-.893-1.8a31.813 31.813 0 0 1 -5.796 1.93z" fill="#e1f2ff" data-original="#000000" style="" class=""/><path d="m42.316 49.948a42.647 42.647 0 0 0 5.131-2.048l-.894-1.79a41.493 41.493 0 0 1 -4.869 1.947z" fill="#e1f2ff" data-original="#000000" style="" class=""/><path d="m35 50h2v2h-2z" fill="#e1f2ff" data-original="#000000" style="" class=""/><path d="m49 57h2v2h-2z" fill="#e1f2ff" data-original="#000000" style="" class=""/><path d="m57 48h2v2h-2z" fill="#e1f2ff" data-original="#000000" style="" class=""/><path d="m9 30h2a3 3 0 0 1 3-3v-2a3 3 0 0 1 -3-3h-2a3 3 0 0 1 -3 3v2a3 3 0 0 1 3 3zm1-5.031a4.988 4.988 0 0 0 1.031 1.031 4.988 4.988 0 0 0 -1.031 1.031 4.988 4.988 0 0 0 -1.031-1.031 4.988 4.988 0 0 0 1.031-1.031z" fill="#e1f2ff" data-original="#000000" style="" class=""/><path d="m31 10h-2a3 3 0 0 1 -3 3v2a3 3 0 0 1 3 3h2a3 3 0 0 1 3-3v-2a3 3 0 0 1 -3-3zm-1 5.031a4.988 4.988 0 0 0 -1.031-1.031 4.988 4.988 0 0 0 1.031-1.031 4.988 4.988 0 0 0 1.031 1.031 4.988 4.988 0 0 0 -1.031 1.031z" fill="#e1f2ff" data-original="#000000" style="" class=""/><path d="m4 61a1 1 0 0 0 1 1h24c2.4 0 4-3.01 4-5v-15a3 3 0 0 0 -3-3h-3.382l-1.718-3.447a1 1 0 0 0 -.9-.553h-1v-30a3 3 0 0 0 -6 0v30h-1a1 1 0 0 0 -.895.553l-1.723 3.447h-3.382a3 3 0 0 0 -3 3v15c0 1.239-1.034 3-2 3a1 1 0 0 0 -1 1zm11-4c0 1.239-1.034 3-2 3h-.94a5.974 5.974 0 0 0 .94-3v-6h2zm4 0c0 1.239-1.034 3-2 3h-.936a5.967 5.967 0 0 0 .936-3v-6h2zm4 0c0 1.239-1.034 3-2 3h-.94a5.974 5.974 0 0 0 .94-3v-6h2zm4 0c0 1.239-1.034 3-2 3h-.936a5.967 5.967 0 0 0 .936-3v-6h2zm4 0c0 1.239-1.034 3-2 3h-.94a5.974 5.974 0 0 0 .94-3v-6h2zm-12-52a1 1 0 0 1 2 0v17h-2zm0 19h2v4h-2zm0 6h2v5h-2zm-2.382 7h6.764l1 2h-8.764zm-7.618 5a1 1 0 0 1 1-1h20a1 1 0 0 1 1 1v7h-22zm0 15v-6h2v6c0 1.239-1.034 3-2 3h-.936a5.967 5.967 0 0 0 .936-3z" fill="#e1f2ff" data-original="#000000" style="" class=""/><path d="m13 45h2v-2h-3a1 1 0 0 0 -1 1v3h2z" fill="#e1f2ff" data-original="#000000" style="" class=""/><path d="m17 43h2v2h-2z" fill="#e1f2ff" data-original="#000000" style="" class=""/></g></g></svg>
