<svg width="40" height="40" viewBox="0 0 40 40" fill="none" xmlns="http://www.w3.org/2000/svg">
<path d="M36.4844 4.76562H3.51563C2.97446 4.76562 2.46782 4.89867 2.00946 5.11797L19.9219 23.0304L23.9366 19.172C23.9366 19.172 23.937 19.1716 23.937 19.1715C23.9371 19.1713 23.9374 19.1712 23.9374 19.1712L37.9911 5.11828C37.5327 4.89883 37.0257 4.76562 36.4844 4.76562Z" fill="#36BEEC"/>
<path d="M39.6481 6.77539L26.4229 19.9999L39.6476 33.2247C39.8669 32.7663 40 32.2597 40 31.7185V8.28102C40 7.74016 39.8673 7.23359 39.6481 6.77539Z" fill="#36BEEC"/>
<path d="M0.352344 6.7749C0.133047 7.23326 0 7.7399 0 8.28107V31.7186C0 32.2594 0.132891 32.7662 0.352031 33.2244L13.5773 19.9998L0.352344 6.7749Z" fill="#36BEEC"/>
<path d="M24.7658 21.6574L20.7505 25.5162C20.5216 25.7451 20.2217 25.8596 19.922 25.8596C19.6222 25.8596 19.3223 25.7451 19.0934 25.5162L15.2344 21.6572L2.00891 34.8818C2.46735 35.1013 2.9743 35.2345 3.51563 35.2345H36.4844C37.0256 35.2345 37.5322 35.1014 37.9906 34.8821L24.7658 21.6574Z" fill="#36BEEC"/>
</svg>
