<svg width="100" height="100" viewBox="0 0 100 100" fill="none" xmlns="http://www.w3.org/2000/svg">
<path d="M81.4275 37.2637L53.9602 57.7068L50 91.5564C55.1939 95.3211 61.5744 97.5445 68.4654 97.5445C85.8535 97.5445 100 83.398 100 66.01C100 53.2391 92.3691 42.217 81.4275 37.2637Z" fill="#61729B"/>
<path d="M44.4359 59.9266L18.6908 37.2122C7.68633 42.1395 0 53.1936 0 66.0102C0 83.3983 14.1465 97.5448 31.5348 97.5448C38.4256 97.5448 44.8061 95.3213 50 91.5567L44.4359 59.9266Z" fill="#00CC76"/>
<path d="M50 52.1821C55.194 48.4173 81.4276 37.2638 81.4276 37.2638C81.5391 36.1876 81.5969 35.0956 81.5969 33.9903C81.5969 16.6021 67.4504 2.45557 50.0623 2.45557C32.674 2.45557 18.5276 16.6021 18.5276 33.9903C18.5276 35.0778 18.5828 36.1526 18.6908 37.212C18.6908 37.212 44.8061 48.4175 50 52.1821Z" fill="#FF6699"/>
<path d="M50.0621 2.45557C50.0414 2.45557 50.0207 2.45635 50 2.45635V40.4648L51.9531 52.1821L81.4275 37.2638C81.5391 36.1876 81.5969 35.0956 81.5969 33.9903C81.5967 16.6019 67.4504 2.45557 50.0621 2.45557Z" fill="#E62E6B"/>
<path d="M50 40.4634L38.6375 49.6624L37.1 62.7366L50.0791 69.1216L62.9061 62.7884L61.3781 49.6827L50 40.4634Z" fill="#D9F2FF"/>
<path d="M50 40.4634V65.5247L51.9531 69.0825L62.9061 62.7884L61.3781 49.6827L50 40.4634Z" fill="#C4E1FF"/>
<path d="M50 40.4634C57.0926 45.6044 61.9715 53.621 62.9061 62.7884C72.9615 58.2861 80.2459 48.6679 81.4275 37.2638C77.4715 35.473 73.0828 34.4753 68.4654 34.4753C61.5744 34.4753 55.1939 36.6988 50 40.4634Z" fill="#29376D"/>
<path d="M37.1 62.7367C38.0477 53.591 42.9209 45.5947 50 40.4634C44.8061 36.6986 38.4256 34.4753 31.5348 34.4753C26.9631 34.4753 22.616 35.4544 18.6908 37.2121C19.851 48.5943 27.09 58.2052 37.1 62.7367Z" fill="#FED843"/>
<path d="M63.0693 66.0102C63.0693 64.9227 63.0141 63.8479 62.906 62.7885C58.9809 64.5461 54.6338 65.5251 50.0623 65.5251C45.4449 65.5251 41.0561 64.5274 37.1 62.7366C36.9885 63.8127 36.9307 64.9047 36.9307 66.01C36.9307 76.5073 42.0877 85.8215 50 91.5565C57.9123 85.8217 63.0693 76.5075 63.0693 66.0102Z" fill="#7ED8F6"/>
<path d="M50.0621 65.5251C50.0414 65.5251 50.0207 65.5243 50 65.5243V91.5567C57.9123 85.8216 63.0693 76.5075 63.0693 66.0103C63.0693 64.9228 63.0141 63.8479 62.9061 62.7886C58.9807 64.546 54.6338 65.5251 50.0621 65.5251Z" fill="#66C0EE"/>
</svg>
