<svg width="672" height="553" viewBox="0 0 672 553" fill="none" xmlns="http://www.w3.org/2000/svg">
<g clip-path="url(#clip0)">
<path d="M592.926 447.573C579.401 473.966 562.247 499.491 540.542 522.593C540.061 523.115 539.573 523.623 539.082 524.14L487.659 499.796C487.973 499.273 488.318 498.687 488.689 498.045C510.779 460.251 644.123 229.698 639.91 177.481C640.401 181.788 656.206 324.211 592.926 447.573Z" fill="#E6E6E6"/>
<path d="M550.463 527.289C549.744 527.699 549.006 528.099 548.263 528.486L509.686 510.224C510.225 509.841 510.853 509.388 511.576 508.88C523.394 500.394 558.538 474.935 592.926 447.573C629.881 418.17 665.969 386.577 671.328 371.497C670.24 374.955 636.415 480.071 550.463 527.289Z" fill="#E6E6E6"/>
<path d="M198.698 552.233C308.435 552.233 397.395 543.424 397.395 532.559C397.395 521.694 308.435 512.887 198.698 512.887C88.96 512.887 0 521.694 0 532.559C0 543.424 88.96 552.233 198.698 552.233Z" fill="#E6E6E6"/>
<path d="M89.8992 541.805C122.78 541.805 149.434 515.15 149.434 482.27C149.434 449.39 122.78 422.735 89.8992 422.735C57.019 422.735 30.3643 449.39 30.3643 482.27C30.3643 515.15 57.019 541.805 89.8992 541.805Z" fill="url(#paint0_linear)"/>
<path d="M113.747 457.286H66.0515C63.9439 457.289 61.9234 458.127 60.4332 459.618C58.9429 461.108 58.1046 463.128 58.1023 465.236V499.304C58.1046 501.411 58.9429 503.432 60.4332 504.922C61.9234 506.412 63.9439 507.251 66.0515 507.253H113.747C115.855 507.251 117.875 506.412 119.365 504.922C120.856 503.432 121.694 501.411 121.696 499.304V465.236C121.694 463.128 120.856 461.108 119.365 459.618C117.875 458.127 115.854 457.289 113.747 457.286ZM113.747 461.829C114.032 461.83 114.315 461.867 114.59 461.939L89.9043 481.632L65.3632 461.899C65.5896 461.852 65.8202 461.829 66.0515 461.829H113.747ZM113.747 502.711H66.0515C65.1482 502.71 64.2823 502.351 63.6437 501.712C63.005 501.074 62.6457 500.207 62.6447 499.304V465.541L88.4762 486.311C88.8781 486.635 89.3789 486.811 89.8947 486.813C90.4111 486.813 90.912 486.638 91.3153 486.316L117.153 465.705V499.304C117.153 500.207 116.793 501.074 116.155 501.712C115.516 502.351 114.65 502.71 113.747 502.711Z" fill="white"/>
<path d="M253.326 331.371L204.68 334.499L191.632 288.314L234.389 278.294L253.326 331.371Z" fill="#2F2E41"/>
<path d="M319.658 391.851L332.979 391.961C334.327 391.972 335.661 391.689 336.889 391.132C338.116 390.574 339.207 389.756 340.085 388.733C340.964 387.711 341.608 386.509 341.974 385.212C342.341 383.915 342.42 382.554 342.206 381.222C341.976 379.79 341.412 378.432 340.561 377.257C339.711 376.082 338.596 375.124 337.307 374.458C336.017 373.792 334.59 373.439 333.139 373.426C331.689 373.413 330.255 373.74 328.954 374.382L316.392 380.582L273.425 390.163L255.018 371.343L244.444 388.758L269.284 407.949L319.658 391.851Z" fill="#FFB8B8"/>
<path d="M317.162 529.481L301.467 532.499C290.747 498.706 279.132 466.705 279.132 441.953C263.961 458.838 245.148 468.498 222.995 471.532L225.409 434.107L243.518 424.449L271.234 411.656C273.66 410.536 276.278 409.889 278.947 409.749C284.136 409.476 289.242 411.132 293.283 414.398C297.324 417.664 300.014 422.31 300.835 427.44L317.162 529.481Z" fill="#FFB8B8"/>
<path d="M314.747 514.39C314.747 514.39 316.252 513.752 322.262 521.617C322.262 521.617 341.455 525.19 338.28 533.845C335.106 542.499 310.428 542.227 308.083 540.905C305.738 539.583 287.073 539.61 288.363 533.73C289.654 527.85 297.089 521.278 297.089 521.278C297.089 521.278 300.508 528.205 305.821 528.234C312.936 528.273 315.35 522.237 314.143 516.2C314.132 516.144 314.792 514.426 314.747 514.39Z" fill="#2F2E41"/>
<path d="M193.98 493.806C193.98 493.806 196.331 500.235 185.744 504.107C185.744 504.107 175.36 523.767 167.024 517.386C158.687 511.004 167.338 484.261 169.57 482.159C171.802 480.057 178.092 459.75 184.048 463.144C190.006 466.538 194.635 476.848 194.635 476.848C194.635 476.848 175.454 483.007 184.527 497.264C184.527 497.264 188.484 497.532 193.98 493.806Z" fill="#2F2E41"/>
<path d="M215.917 323.326C226.834 323.326 235.684 314.476 235.684 303.559C235.684 292.643 226.834 283.793 215.917 283.793C205 283.793 196.151 292.643 196.151 303.559C196.151 314.476 205 323.326 215.917 323.326Z" fill="#FFB8B8"/>
<path d="M232.954 355.936H198.547L191.303 334.808C203.862 330.975 200.928 320.09 198.547 309.456H232.954C226.284 322.76 217.997 341.588 234.162 345.07L232.954 355.936Z" fill="#FFB8B8"/>
<path d="M242.009 467.004L235.754 471.758C233.064 473.803 229.886 475.108 226.536 475.544C223.186 475.981 219.78 475.534 216.656 474.248C198.739 460.818 184.127 464.843 172.591 485.113C158.754 469.496 157.223 446.878 169.572 423.542L238.085 425.052L251.969 420.826L242.009 467.004Z" fill="#2F2E41"/>
<path d="M219.192 536.943C215.266 538.151 211.04 537.938 207.255 536.344C203.47 534.749 200.366 531.873 198.489 528.22C192.332 522.797 187.137 515.032 182.631 505.59C179.398 498.664 176.621 491.533 174.32 484.245C171.202 474.615 176.416 464.094 186.119 461.214C186.407 461.128 186.7 461.047 186.995 460.971C199.949 457.645 213.251 465.117 217.679 477.736L230.554 514.43C231.334 516.652 231.657 519.009 231.504 521.359C231.351 523.708 230.725 526.002 229.664 528.105C228.604 530.207 227.129 532.073 225.329 533.592C223.53 535.111 221.442 536.25 219.192 536.943Z" fill="#FFB8B8"/>
<path opacity="0.2" d="M180.438 501.412C180.438 501.412 195.529 518.313 198.547 527.971L180.438 501.412Z" fill="black"/>
<path d="M121.91 421.646L116.86 433.973C116.348 435.22 116.115 436.564 116.177 437.91C116.239 439.257 116.593 440.574 117.216 441.769C117.839 442.965 118.715 444.009 119.783 444.832C120.851 445.653 122.087 446.233 123.402 446.529C124.817 446.847 126.287 446.828 127.694 446.475C129.101 446.122 130.405 445.443 131.502 444.492C132.599 443.543 133.457 442.349 134.009 441.007C134.559 439.666 134.788 438.213 134.675 436.766L133.587 422.8L140.653 379.349L164.965 369.251L152.725 352.964L125.68 368.897L121.91 421.646Z" fill="#FFB8B8"/>
<path d="M242.613 423.543C225.269 452.675 197.375 447.563 167.762 424.75C180.251 415.412 172.591 388.532 161.726 386.721C150.49 384.848 149.139 361.871 144.824 350.502L197.34 331.186L211.525 342.353L225.711 339.033L231.527 341.097C235.311 342.44 238.594 344.91 240.933 348.174C243.272 351.439 244.556 355.342 244.611 359.357C232.694 376.574 223.871 394.94 242.613 423.543Z" fill="#36BEEC"/>
<path d="M249.252 400.001C249.252 400.001 246.579 386.219 237.805 390.544C229.031 394.87 228.427 382.797 228.427 382.797L235.369 342.656L263.739 372.838L249.252 400.001Z" fill="#36BEEC"/>
<path d="M234.379 278.12C234.379 278.12 244.397 281.876 244.537 295.212C244.531 297.456 244.212 299.689 243.588 301.844C242.915 304.288 242.345 309.601 246.664 316.727C249.487 321.353 252.034 326.142 254.291 331.069L242.966 332.061L241.26 313.286C240.433 304.183 238.271 295.251 234.842 286.778L234.771 286.601C234.771 286.601 229.5 295.578 219.635 295.213L223.289 291.82C223.289 291.82 210.889 296.365 204.161 297.24C203.393 297.34 202.667 297.648 202.061 298.129C201.455 298.612 200.992 299.25 200.722 299.976C200.452 300.701 200.385 301.487 200.528 302.248C200.671 303.009 201.02 303.717 201.535 304.294C201.574 304.337 201.614 304.381 201.655 304.425C205.726 308.809 213.816 318.987 208.597 326.554C203.378 334.123 207.527 336.393 207.527 336.393L199.933 331.878L196.488 329.634L196.384 332.453L178.143 329.661C178.143 329.661 173.236 328.774 184.249 317.187C184.249 317.187 187.212 312.638 186.14 308.581C185.249 305.495 185.106 302.241 185.721 299.089C188.577 285.968 198.84 260.051 234.379 278.12Z" fill="#2F2E41"/>
<path d="M594.811 128.703H591.834V47.1813C591.834 34.6681 586.863 22.6673 578.014 13.8191C569.167 4.97087 557.166 0 544.653 0H371.937C359.423 0 347.422 4.97087 338.574 13.8191C329.726 22.6673 324.755 34.6681 324.755 47.1813V494.417C324.755 506.931 329.726 518.932 338.574 527.78C347.422 536.628 359.423 541.599 371.937 541.599H544.652C557.165 541.599 569.166 536.628 578.014 527.78C586.862 518.932 591.833 506.931 591.833 494.417V186.732H594.81L594.811 128.703Z" fill="#3F3D56"/>
<path d="M546.556 12.274H524.011C525.049 14.8161 525.444 17.5742 525.165 20.3055C524.885 23.0367 523.937 25.6572 522.406 27.936C520.874 30.2148 518.806 32.082 516.383 33.373C513.96 34.6641 511.257 35.3393 508.511 35.3393H409.565C406.82 35.3391 404.117 34.6637 401.694 33.3728C399.271 32.0818 397.203 30.2148 395.672 27.9363C394.141 25.6578 393.193 23.0377 392.913 20.3068C392.633 17.5759 393.029 14.8181 394.066 12.2762H373.005C363.66 12.2762 354.698 15.9885 348.09 22.5965C341.482 29.2045 337.77 38.1668 337.77 47.5119V494.089C337.77 503.434 341.482 512.397 348.09 519.005C354.698 525.613 363.66 529.325 373.005 529.325H546.55C555.894 529.325 564.857 525.613 571.465 519.005C578.073 512.397 581.785 503.434 581.785 494.089V47.5096C581.785 38.1645 578.073 29.2022 571.465 22.5942C564.857 15.9863 555.894 12.2739 546.55 12.2739H546.556V12.274Z" fill="white"/>
<path d="M460.079 504.369C470.765 504.369 479.428 495.706 479.428 485.02C479.428 474.334 470.765 465.671 460.079 465.671C449.392 465.671 440.73 474.334 440.73 485.02C440.73 495.706 449.392 504.369 460.079 504.369Z" fill="#E6E6E6"/>
<path d="M381.585 306.082C379.756 306.082 378.268 307.781 378.268 309.868C378.268 311.956 379.756 313.655 381.585 313.655H537.97C539.799 313.655 541.287 311.956 541.287 309.868C541.287 307.781 539.799 306.082 537.97 306.082H381.585Z" fill="#E6E6E6"/>
<path d="M381.585 395.384C379.756 395.384 378.268 397.083 378.268 399.171C378.268 401.258 379.756 402.957 381.585 402.957H537.97C539.799 402.957 541.287 401.258 541.287 399.171C541.287 397.083 539.799 395.384 537.97 395.384H381.585Z" fill="#E6E6E6"/>
<path d="M381.585 328.8C379.756 328.8 378.268 330.499 378.268 332.586C378.268 334.674 379.756 336.372 381.585 336.372H448.878C450.707 336.372 452.195 334.674 452.195 332.586C452.195 330.499 450.707 328.8 448.878 328.8H381.585Z" fill="#E6E6E6"/>
<path d="M381.585 350.455C379.756 350.455 378.268 352.154 378.268 354.241C378.268 356.328 379.756 358.027 381.585 358.027H537.97C539.799 358.027 541.287 356.328 541.287 354.241C541.287 352.154 539.799 350.455 537.97 350.455H381.585Z" fill="#E6E6E6"/>
<path d="M381.585 373.173C379.756 373.173 378.268 374.872 378.268 376.959C378.268 379.047 379.756 380.746 381.585 380.746H448.878C450.707 380.746 452.195 379.047 452.195 376.959C452.195 374.872 450.707 373.173 448.878 373.173H381.585Z" fill="#E6E6E6"/>
<path d="M411.108 133.676H508.457C509.532 133.677 510.564 134.105 511.323 134.865C512.084 135.626 512.512 136.657 512.513 137.732V239.118C512.512 240.193 512.084 241.224 511.323 241.985C510.564 242.745 509.532 243.172 508.457 243.174H411.108C410.032 243.172 409.001 242.745 408.24 241.985C407.48 241.224 407.053 240.193 407.051 239.118V137.732C407.053 136.657 407.48 135.626 408.24 134.865C409.001 134.105 410.032 133.677 411.108 133.676Z" fill="#3E7094"/>
<path d="M487.713 222.267C488.076 222.267 488.435 222.196 488.769 222.058C489.104 221.92 489.408 221.717 489.664 221.461C489.92 221.205 490.123 220.902 490.262 220.568C490.401 220.233 490.472 219.875 490.472 219.512C490.472 219.151 490.401 218.792 490.262 218.458C490.123 218.123 489.92 217.819 489.664 217.563C489.408 217.308 489.104 217.105 488.769 216.967C488.435 216.829 488.076 216.758 487.713 216.759H431.85C431.489 216.758 431.13 216.829 430.795 216.967C430.461 217.105 430.157 217.308 429.901 217.563C429.645 217.819 429.441 218.123 429.302 218.458C429.164 218.792 429.092 219.151 429.092 219.512C429.092 219.875 429.164 220.233 429.302 220.568C429.441 220.902 429.645 221.205 429.901 221.461C430.157 221.717 430.461 221.92 430.795 222.058C431.13 222.196 431.489 222.267 431.85 222.267H487.713Z" fill="white"/>
<path d="M487.713 206.041C488.444 206.041 489.145 205.752 489.661 205.235C490.177 204.719 490.468 204.018 490.468 203.288C490.468 202.558 490.177 201.857 489.661 201.34C489.145 200.824 488.444 200.534 487.713 200.534H431.85C431.489 200.534 431.131 200.605 430.797 200.743C430.463 200.882 430.159 201.085 429.904 201.34C429.648 201.596 429.445 201.9 429.307 202.234C429.168 202.568 429.097 202.926 429.097 203.288C429.097 203.649 429.168 204.007 429.307 204.341C429.445 204.676 429.648 204.979 429.904 205.235C430.159 205.49 430.463 205.694 430.797 205.832C431.131 205.97 431.489 206.041 431.85 206.041H487.713Z" fill="white"/>
<path d="M459.782 154.583C463.21 154.583 466.561 155.6 469.412 157.504C472.263 159.41 474.485 162.116 475.797 165.284C477.109 168.451 477.452 171.936 476.783 175.299C476.114 178.662 474.463 181.75 472.038 184.175C469.615 186.598 466.526 188.249 463.163 188.918C459.801 189.587 456.315 189.244 453.148 187.932C449.981 186.62 447.274 184.398 445.369 181.548C443.465 178.697 442.448 175.346 442.448 171.917C442.453 167.322 444.281 162.915 447.53 159.666C450.78 156.416 455.186 154.589 459.782 154.583Z" fill="white"/>
</g>
<defs>
<linearGradient id="paint0_linear" x1="89.8992" y1="422.735" x2="89.8992" y2="541.805" gradientUnits="userSpaceOnUse">
<stop stop-color="#3E7094"/>
<stop offset="1" stop-color="#36BEEC"/>
</linearGradient>
<clipPath id="clip0">
<rect width="672" height="552.93" fill="white"/>
</clipPath>
</defs>
</svg>
