<svg width="708" height="708" viewBox="0 0 708 708" fill="none" xmlns="http://www.w3.org/2000/svg">
<g clip-path="url(#clip0)">
<path d="M604.319 359.168C742.564 438.967 742.564 568.349 604.318 648.151C466.07 727.95 241.929 727.95 103.683 648.151C-34.5617 568.35 -34.561 438.969 103.685 359.168C241.932 279.368 466.073 279.368 604.319 359.168" fill="#F3F2F1"/>
<path d="M460.619 551.873C486.037 566.545 486.037 590.335 460.619 605.008C435.199 619.68 393.988 619.68 368.569 605.008C343.151 590.335 343.151 566.546 368.569 551.873C393.989 537.201 435.201 537.201 460.619 551.873Z" fill="#DADBD8"/>
<path d="M629.96 529.626C655.378 544.297 655.378 568.086 629.96 582.76C604.538 597.433 563.326 597.433 537.908 582.76C512.49 568.088 512.49 544.297 537.908 529.626C563.328 514.952 604.54 514.952 629.96 529.626Z" fill="#DADBD8"/>
<path d="M273.924 608.209C299.342 622.883 299.342 646.671 273.924 661.342C248.505 676.016 207.292 676.016 181.874 661.344C156.455 646.671 156.455 622.883 181.874 608.209C207.294 593.537 248.505 593.537 273.924 608.209" fill="#DADBD8"/>
<path d="M121.188 511.222C121.188 511.222 119.481 471.494 102.829 449.389C86.1782 427.287 65.7503 424.097 55.6155 430.319C48.2308 434.853 49.2262 448.311 62.0114 457.108C74.7977 465.903 99.4444 488.265 103.296 502.877L121.188 511.222" fill="#273E47"/>
<path d="M110.256 505.433C109.695 505.398 109.263 504.918 109.29 504.355C111.002 468.311 79.3644 445.834 70.7976 441.789C70.2834 441.545 70.0633 440.93 70.3054 440.417C70.5494 439.9 71.1632 439.687 71.6769 439.923C80.5061 444.094 113.114 467.266 111.35 504.453C111.322 505.022 110.839 505.463 110.272 505.434L110.256 505.433" fill="white"/>
<path d="M113.275 498.68C110.961 498.346 108.721 497.936 107.199 496.258C105.259 494.122 105.423 490.874 104.531 488.13C103.069 483.634 98.6313 480.586 94.0025 479.62C89.3731 478.653 84.5619 479.447 79.9701 480.573C74.8134 481.839 69.7688 480.638 64.7074 479.436C60.6613 478.477 56.6046 477.516 52.4723 477.816C49.1525 478.057 45.7796 478.846 43.057 480.762C40.3349 482.677 38.3625 485.873 38.5505 489.196C38.7071 491.969 40.3165 494.496 42.3811 496.354C44.4463 498.208 46.9509 499.491 49.4246 500.751C52.1442 502.138 54.8638 503.524 57.5827 504.911C58.9316 505.598 60.303 506.302 61.3753 507.37C63.3931 509.38 64.7911 513.268 64.2264 516.06C63.5965 519.17 61.0434 521.602 60.2846 524.684C59.2885 528.732 61.7618 533.056 65.3114 535.242C68.8619 537.429 73.2343 537.842 77.3973 537.601C81.5603 537.36 85.6803 536.528 89.8505 536.454C92.6593 536.404 95.5847 536.737 97.9725 538.219C100.884 540.026 102.578 543.275 103.678 546.523C104.386 548.608 104.931 550.807 106.231 552.587C107.577 554.431 109.628 555.656 111.773 556.44C115.883 557.944 120.661 557.989 124.762 556.417C128.202 555.099 129.884 551.213 131.168 547.85C132.457 544.475 133.07 540.447 132.978 536.865C132.741 527.509 130.634 517.412 126.579 508.965C124.643 504.933 121.832 500.91 117.582 499.513C116.224 499.066 114.735 498.889 113.275 498.68" fill="#33535F"/>
<path d="M122.287 541.874C121.907 541.874 121.552 541.636 121.421 541.259C111.722 513.443 65.7935 489.231 49.0009 486.456C48.5 486.373 48.1615 485.903 48.2438 485.401C48.3268 484.9 48.8104 484.56 49.2988 484.645C66.4128 487.471 113.238 512.208 123.153 540.652C123.322 541.132 123.07 541.655 122.59 541.822L122.287 541.874" fill="white"/>
<path d="M81.0164 526.642C80.7417 526.642 80.469 526.52 80.2876 526.284C79.9798 525.883 80.0548 525.305 80.4565 524.997C80.8745 524.675 90.8526 517.142 105.966 516.803H105.986C106.484 516.803 106.894 517.201 106.904 517.701C106.915 518.208 106.513 518.629 106.006 518.64C91.4892 518.964 81.6726 526.376 81.5756 526.452C81.409 526.579 81.2117 526.642 81.0164 526.642" fill="white"/>
<path d="M122.77 563.404C120.932 562.343 119.442 559.649 119.442 557.387L119.44 229.639C119.44 227.377 121.029 224.626 122.989 223.496L508.646 0.895131C510.606 -0.235643 513.685 -0.292307 515.524 0.769269C517.361 1.82927 518.852 4.52335 518.852 6.78648L518.854 334.533C518.854 336.796 517.265 339.547 515.305 340.678L129.645 563.277C127.686 564.409 124.607 564.466 122.77 563.404" fill="#33535F"/>
<path d="M128.972 563.585L128.824 563.634L128.48 563.764L128.218 563.846C128.071 563.895 127.907 563.945 127.727 563.961L127.399 564.027C127.235 564.06 127.038 564.092 126.858 564.109C125.399 564.272 123.875 564.042 122.777 563.404C120.925 562.34 119.451 559.652 119.451 557.391L119.434 271.657L126.103 275.507V561.224C126.103 562.83 126.907 563.764 128.071 563.764C128.234 563.764 128.382 563.749 128.545 563.698L128.628 563.682L128.972 563.585Z" fill="#26B6A6"/>
<path d="M125.948 564.16C124.786 564.16 123.647 563.91 122.777 563.404C120.925 562.339 119.45 559.652 119.45 557.39L119.438 335.118L126.103 338.997V561.224C126.103 561.232 126.103 561.239 126.104 561.247C126.106 561.69 126.169 562.08 126.284 562.415C126.286 562.419 126.288 562.423 126.289 562.427C126.59 563.286 127.238 563.764 128.071 563.764C128.198 563.764 128.316 563.755 128.44 563.727C128.552 563.709 128.666 563.682 128.782 563.649L128.48 563.764L128.218 563.846C128.071 563.895 127.907 563.945 127.727 563.961L127.398 564.027C127.235 564.06 127.038 564.092 126.858 564.109C126.556 564.143 126.251 564.16 125.948 564.16" fill="#B7E7EB"/>
<path d="M126.103 275.507L119.434 271.657V335.117L126.103 338.997V275.507Z" fill="#26B6A6"/>
<path d="M126.103 338.997L119.438 335.118L119.434 335.117V271.657L126.103 275.507V338.997Z" fill="#36BEEC"/>
<path d="M127.136 229.989C126.497 231.087 126.103 232.348 126.103 233.479V275.507L119.434 271.657V229.645C119.434 229.497 119.434 229.367 119.451 229.219C119.483 228.925 119.532 228.629 119.598 228.335C119.777 227.597 120.09 226.827 120.483 226.139L127.136 229.989Z" fill="#17282F"/>
<path d="M518.844 6.78013V25.7391L236.152 188.912C234.202 190.043 232.613 189.124 232.613 186.863V179.686C232.613 177.425 231.023 176.508 229.056 177.639L142.967 227.335C141.001 228.465 139.411 231.218 139.411 233.479V240.657C139.411 242.917 137.821 245.671 135.871 246.8L126.103 252.437V233.479C126.103 231.218 127.693 228.465 129.644 227.335L515.305 4.73247C517.254 3.60169 518.844 4.52016 518.844 6.78013Z" fill="#273E47"/>
<path d="M518.862 334.527C518.862 336.789 517.271 339.541 515.305 340.67L129.644 563.272C127.693 564.404 126.103 563.486 126.103 561.224V252.437L135.871 246.8C137.821 245.671 141.001 228.465 142.967 227.335L227.616 178.469C228.599 177.904 230.246 180.797 231.889 183.69C233.535 186.584 235.177 189.476 236.152 188.912L518.844 25.739V48.809L518.862 334.527" fill="#26B6A6"/>
<path d="M127.429 563.652C126.907 563.471 126.507 563.048 126.289 562.427C126.287 562.423 126.285 562.419 126.284 562.415C126.169 562.08 126.106 561.69 126.104 561.247C126.103 561.239 126.103 561.232 126.103 561.224C126.103 562.516 126.622 563.368 127.429 563.652V563.652ZM128.065 562.183C127.696 562.183 127.676 561.385 127.676 561.224V274.599L517.271 49.7165L517.289 334.527C517.289 336.226 515.994 338.46 514.518 339.31L479.418 359.569L485.872 337.325L458.286 344.591C455.492 340.58 451.51 334.881 447.656 329.439L491.165 304.323C493.047 303.238 494.571 300.706 494.571 298.669C494.571 297.257 493.84 296.453 492.765 296.453C492.289 296.453 491.744 296.612 491.165 296.946L443.934 324.21C442.565 322.298 441.279 320.516 440.143 318.965L491.165 289.515C493.047 288.428 494.571 285.896 494.571 283.859C494.571 282.448 493.841 281.645 492.765 281.645C492.289 281.645 491.744 281.802 491.165 282.137L436.234 313.844C434.524 311.838 432.871 310.433 430.98 309.444L491.165 274.704C493.047 273.619 494.571 271.087 494.571 269.049C494.571 267.638 493.841 266.835 492.765 266.835C492.289 266.835 491.744 266.994 491.165 267.327L421.898 307.311C421.256 307.264 420.587 307.225 419.887 307.192L415.944 306.778C415.893 306.72 415.867 306.69 415.867 306.69L415.914 301.156C418.319 301.56 420.765 301.926 422.778 301.926C424.046 301.926 425.143 301.782 425.947 301.409C427.611 300.64 430.587 298.366 431.836 290.675C434.765 286.537 436.546 281.456 436.679 275.928L436.717 274.314C436.697 270.299 435.875 266.487 434.412 263.035L491.165 230.276C493.047 229.19 494.571 226.658 494.571 224.62C494.571 223.209 493.841 222.406 492.765 222.406C492.289 222.406 491.744 222.565 491.165 222.898L431.276 257.468C429.978 255.67 428.481 254.039 426.816 252.611L491.165 215.465C493.047 214.38 494.571 211.848 494.571 209.812C494.571 208.401 493.84 207.596 492.765 207.596C492.289 207.596 491.744 207.754 491.165 208.088L420.812 248.698C418.121 247.42 415.196 246.585 412.123 246.283L491.165 200.657C493.047 199.57 494.571 197.038 494.571 195.001C494.571 193.591 493.841 192.787 492.765 192.787C492.289 192.787 491.744 192.944 491.165 193.279L389.743 251.823C389.133 250.744 388.013 250.088 386.797 250.088C386.45 250.088 386.094 250.142 385.74 250.255L386.615 253.629L385.907 254.038C385.413 253.775 384.889 253.651 384.37 253.651C383.134 253.651 381.935 254.365 381.303 255.623L382.223 256.164L274.339 318.438C272.459 319.523 270.933 322.055 270.933 324.092C270.933 325.503 271.665 326.306 272.739 326.306C273.216 326.306 273.76 326.148 274.339 325.814L385.127 261.865C383.802 264.622 382.898 267.635 382.503 270.812L274.339 333.248C272.459 334.334 270.933 336.866 270.933 338.902C270.933 340.313 271.665 341.117 272.739 341.117C273.216 341.117 273.76 340.958 274.339 340.624L382.442 278.224C382.696 280.5 383.234 282.686 384.019 284.746L274.339 348.057C272.459 349.144 270.933 351.674 270.933 353.711C270.933 355.123 271.665 355.925 272.739 355.925C273.216 355.925 273.76 355.768 274.339 355.435L387.002 290.402C388.172 292.083 389.533 293.616 391.049 294.962L274.339 362.867C272.459 363.952 270.933 366.484 270.933 368.521C270.933 369.932 271.665 370.735 272.739 370.735C273.216 370.735 273.76 370.577 274.339 370.243L386.354 305.07C386.302 305.511 386.275 305.964 386.275 306.429V310.322C385.775 310.447 385.323 310.573 384.939 310.697C385.594 312.302 386.022 314.025 386.275 315.804V320.808L386.557 320.882C386.509 323.348 386.225 325.816 385.819 328.136L318.028 367.268C320.012 360.975 318.961 357.289 316.162 354.467C313.776 352.064 312.002 350.993 310.684 350.993C308.698 350.993 307.745 353.423 307.291 357.393C306.734 362.266 305.296 365.464 305.296 365.464C304.873 363.424 304.694 362.491 304.171 361.478C303.415 360.013 302.274 359.59 301.422 359.59C301.105 359.59 300.829 359.648 300.624 359.733C300.041 359.977 300.763 361.376 300.671 363.933C300.553 367.211 299.495 369.021 300.261 372.502C300.547 373.805 300.308 375.164 299.674 376.337C299.285 377.056 298.793 377.85 298.217 378.703L274.339 392.486C273.389 393.035 272.53 393.952 271.912 394.988C271.726 394.821 271.539 394.653 271.352 394.482C271.459 393.625 271.478 392.978 271.478 392.626C271.478 392.432 271.471 392.329 271.471 392.329C271.471 392.329 260.328 382.082 251.766 374.505V291.268L143.143 353.969L142.827 530.829L251.766 468.309V403.985L260.468 410.121C261.159 409.726 261.805 409.315 262.411 408.892C268.58 413.29 273.971 417.114 275.21 417.935C275.682 418.248 276.167 418.533 276.647 418.788C277.332 419.154 278.054 419.401 278.787 419.538L274.339 422.106C272.459 423.191 270.933 425.722 270.933 427.76C270.933 429.171 271.665 429.974 272.739 429.974C273.216 429.974 273.76 429.816 274.339 429.482L389.309 363.119L389.382 363.342C384.405 373.554 380.288 378.618 378.602 386.915C378.898 387.494 379.311 388.073 379.83 388.642C378.116 395.48 377.494 405.063 377.496 415.375C377.496 416.372 377.501 417.379 377.513 418.388L128.855 561.913C128.431 562.157 128.162 562.183 128.065 562.183ZM355.601 389.935C355.124 389.935 354.58 390.092 354.001 390.427L274.339 436.915C272.459 438.001 270.933 440.532 270.933 442.569C270.933 443.981 271.665 444.785 272.739 444.785C273.216 444.785 273.76 444.626 274.339 444.292L354.001 397.805C355.881 396.718 357.407 394.186 357.407 392.149C357.407 390.739 356.675 389.935 355.601 389.935ZM492.765 177.977C492.289 177.977 491.744 178.136 491.165 178.469L274.339 303.628C272.459 304.715 270.933 307.245 270.933 309.282C270.933 310.694 271.665 311.498 272.739 311.498C273.216 311.498 273.76 311.339 274.339 311.006L491.165 185.847C493.047 184.762 494.571 182.229 494.571 180.191C494.571 178.781 493.841 177.977 492.765 177.977ZM408.925 204.403C408.271 204.403 407.528 204.618 406.74 205.073L275.704 280.712C273.071 282.231 270.935 285.929 270.935 288.969L270.933 289.516C270.933 291.668 271.998 292.907 273.551 292.907C274.193 292.907 274.919 292.695 275.687 292.246L406.754 215.756C409.379 214.223 411.509 210.595 411.509 207.651C411.509 205.587 410.459 204.403 408.925 204.403V204.403ZM288.63 413.856C291.567 410.155 294.85 405.558 298.022 401.002L385.257 350.647L387.291 356.907L288.63 413.856V413.856ZM278.902 401.304C278.1 400.577 277.172 399.739 276.15 398.818L286.704 392.725C284.015 395.726 281.293 398.684 278.902 401.304ZM306.513 388.724C307.075 387.923 307.61 387.17 308.112 386.473C310.116 383.694 312.071 380.142 313.6 377.199L383.713 336.729C382.868 339.429 382.165 341.126 382.165 341.126L383.239 344.435L306.513 388.724V388.724ZM436.004 374.592C435.495 367.359 434.659 358.633 433.344 352.171C434.6 349.724 435.591 347.591 436.361 345.71L441.694 351.207L436.004 374.592Z" fill="#D9F2FF"/>
<path d="M128.065 563.756C127.838 563.756 127.625 563.722 127.429 563.652C127.625 563.722 127.838 563.756 128.065 563.756C128.187 563.756 128.313 563.747 128.443 563.727C128.442 563.727 128.441 563.727 128.44 563.727C128.312 563.747 128.186 563.756 128.065 563.756V563.756ZM128.782 563.649L128.785 563.648C129.06 563.569 129.347 563.445 129.644 563.272L377.539 420.189L129.644 563.272C129.347 563.445 129.058 563.569 128.782 563.649Z" fill="#1D9B8F"/>
<path d="M128.44 563.727C128.441 563.727 128.442 563.727 128.443 563.727C128.554 563.708 128.668 563.683 128.784 563.648L128.782 563.649C128.666 563.683 128.551 563.71 128.44 563.727Z" fill="#60C9B9"/>
<path d="M128.065 563.756C127.838 563.756 127.625 563.722 127.429 563.652C126.622 563.368 126.103 562.516 126.103 561.224V252.437V275.507L127.676 274.599V561.224C127.676 561.385 127.696 562.183 128.065 562.183C128.162 562.183 128.431 562.157 128.855 561.913L377.513 418.388C377.52 418.989 377.527 419.585 377.538 420.189L129.644 563.272C129.347 563.445 129.06 563.57 128.785 563.648C128.668 563.682 128.554 563.708 128.443 563.727C128.313 563.747 128.187 563.756 128.065 563.756ZM478.786 361.749L479.418 359.569L514.518 339.31C515.994 338.46 517.289 336.226 517.289 334.527L517.271 49.7165L518.844 48.809L518.862 334.527C518.862 336.789 517.271 339.541 515.305 340.67L478.786 361.749" fill="#36BEEC"/>
<path d="M239.11 187.204L518.844 25.7391L239.269 187.116C239.214 187.147 239.162 187.177 239.11 187.204" fill="#78D1C5"/>
<path d="M126.104 275.507V338.997L518.845 112.324V48.809L126.104 275.507Z" fill="#36BEEC"/>
<path d="M518.844 25.7391V48.8091L126.103 275.507V252.437L133.398 248.212C135.349 247.083 136.004 245.363 136.938 242.069L139.411 233.479C140.191 230.497 141.001 228.465 142.967 227.335L227.616 178.469C229.582 177.338 231.117 177.214 232.613 179.686L235.647 185.194C236.761 187.116 237.318 188.247 239.268 187.116L518.844 25.7391Z" fill="#EDEDEB"/>
<path d="M502.21 18.6695C504.675 17.2462 506.674 18.4005 506.674 21.2471C506.674 24.0937 504.675 27.5553 502.21 28.9786C499.742 30.4019 497.744 29.2475 497.744 26.4009C497.744 23.5543 499.742 20.0928 502.21 18.6695Z" fill="#3E7094"/>
<path d="M486.134 27.9359C488.6 26.5126 490.599 27.6654 490.599 30.512C490.599 33.3602 488.6 36.8217 486.134 38.245C483.669 39.6683 481.669 38.5139 481.669 35.6674C481.669 32.8208 483.669 29.3592 486.134 27.9359Z" fill="#3E7094"/>
<path d="M470.059 37.2009C472.526 35.7791 474.525 36.9335 474.525 39.7801C474.525 42.6267 472.526 46.0881 470.059 47.5114C467.594 48.9347 465.595 47.7804 465.595 44.9338C465.595 42.0872 467.594 38.6257 470.059 37.2009" fill="#3E7094"/>
<path d="M138.639 261.706H138.343L135.322 259.383L135.313 259.372L135.232 259.25L135.208 259.209L135.168 258.952L135.208 258.652L135.232 258.583L135.313 258.367L135.322 258.345L138.343 252.533C138.472 252.287 138.647 252.146 138.797 252.146C138.864 252.146 138.925 252.174 138.976 252.234C139.139 252.427 139.12 252.874 138.933 253.232L136.81 257.315L142.38 254.101C142.436 254.069 142.488 254.053 142.538 254.053C142.707 254.053 142.828 254.236 142.828 254.531C142.828 254.912 142.628 255.337 142.38 255.48L136.81 258.694L138.933 260.327C139.12 260.47 139.139 260.895 138.976 261.277C138.887 261.483 138.763 261.634 138.639 261.706" fill="#899EA2"/>
<path d="M150.774 254.701L150.437 254.66C150.273 254.467 150.293 254.02 150.48 253.663L152.603 249.579L147.033 252.794C146.977 252.827 146.924 252.841 146.875 252.841C146.705 252.841 146.584 252.658 146.584 252.363C146.584 251.982 146.785 251.557 147.033 251.414L152.603 248.2L150.48 246.567C150.293 246.424 150.273 245.999 150.437 245.617C150.563 245.322 150.762 245.141 150.932 245.141C150.981 245.141 151.027 245.157 151.069 245.188L154.091 247.511L154.099 247.523L154.18 247.645L154.205 247.687L154.244 247.942L154.205 248.242L154.18 248.313L154.099 248.527L154.091 248.549L151.069 254.362C150.984 254.525 150.88 254.641 150.774 254.701" fill="#899EA2"/>
<path d="M161.379 248.92C160.921 248.92 160.492 248.752 160.125 248.398C158.746 247.07 158.746 243.615 160.125 240.696C161.135 238.556 162.608 237.302 163.868 237.302C163.935 237.302 164.001 237.307 164.066 237.313L164.83 235.448C164.911 235.252 165.033 235.148 165.134 235.148C165.219 235.148 165.29 235.223 165.305 235.377L165.637 238.633C165.661 238.863 165.543 239.152 165.384 239.256L163.113 240.737C163.073 240.764 163.036 240.775 163.003 240.775C162.84 240.775 162.768 240.49 162.891 240.187L163.467 238.781C162.546 238.836 161.491 239.754 160.758 241.305C159.729 243.485 159.729 246.067 160.758 247.056C161.033 247.322 161.352 247.446 161.694 247.446C162.634 247.446 163.739 246.498 164.494 244.9C164.623 244.63 164.81 244.469 164.969 244.469C165.027 244.469 165.082 244.49 165.128 244.535C165.304 244.704 165.304 245.139 165.128 245.51C164.439 246.97 163.533 248.024 162.627 248.547C162.203 248.791 161.78 248.92 161.379 248.92" fill="#899EA2"/>
<path d="M221.624 195.729C221.544 195.729 221.47 195.701 221.406 195.638C221.165 195.409 221.165 194.809 221.406 194.301L223.436 190.003L221.406 188.05C221.165 187.819 221.165 187.22 221.406 186.712C221.582 186.339 221.837 186.119 222.055 186.119C222.135 186.119 222.211 186.149 222.274 186.21L224.305 188.163L226.335 183.867C226.51 183.494 226.766 183.274 226.985 183.274C227.065 183.274 227.139 183.304 227.204 183.365C227.444 183.595 227.444 184.194 227.204 184.703L225.175 189L227.204 190.955C227.444 191.184 227.444 191.784 227.204 192.292C227.084 192.545 226.927 192.729 226.77 192.82C226.696 192.862 226.623 192.884 226.554 192.884C226.474 192.884 226.4 192.855 226.335 192.793L224.305 190.838L222.274 195.137C222.154 195.391 221.997 195.574 221.84 195.665C221.766 195.707 221.693 195.729 221.624 195.729" fill="#899EA2"/>
<path d="M172.697 240.66V233.482C172.697 231.219 174.286 228.469 176.246 227.338L495.332 43.2449C497.292 42.1141 498.881 43.0311 498.881 45.2942V52.4704C498.88 54.7335 497.291 57.4842 495.332 58.6166L176.246 242.709C174.286 243.84 172.697 242.923 172.697 240.66" fill="white"/>
<path d="M489.341 53.3053L490.779 54.3433C491.016 54.5163 491.128 54.8229 491.084 55.1878L490.79 57.6397L492.345 55.6627C492.567 55.3781 492.853 55.2365 493.144 55.2695L495.01 55.5008L495.076 55.1233L494.719 52.5629C494.684 52.3034 494.746 52.0015 494.884 51.7357L496.391 48.9111L494.667 49.5732C494.299 49.7116 493.934 49.5654 493.771 49.2131L492.995 47.5649L492.986 47.5916L492.056 50.6474C491.966 50.9352 491.798 51.1915 491.589 51.3504L489.506 52.9577L489.341 53.3053ZM490.503 59.0189L490.242 58.9685C489.989 58.8632 489.739 58.5659 489.8 58.0485L490.156 55.0761L490.162 55.0525L488.723 54.013C488.524 53.8699 488.411 53.6308 488.406 53.3414C488.399 52.9168 488.611 52.4655 488.933 52.217L491.018 50.6112L491.161 50.3737L492.092 47.3195C492.245 46.8179 492.614 46.4608 493.012 46.4325C493.297 46.4089 493.558 46.5662 493.687 46.8383V46.8398L494.527 48.6249L496.415 47.9014C496.704 47.7913 497 47.8605 497.192 48.0776C497.455 48.3748 497.466 48.8844 497.219 49.3452L495.712 52.1745L495.646 52.4355L496.001 54.9943C496.064 55.4457 495.844 55.8987 495.598 56.1487C495.389 56.3595 495.141 56.4601 494.895 56.4286L493.031 56.1974L491.217 58.621C490.989 58.9135 490.728 59.0189 490.503 59.0189" fill="#DADBD8"/>
<path d="M503.066 42.3687C502.638 42.3687 502.226 42.1486 501.999 41.7554C501.659 41.1672 501.861 40.4154 502.447 40.0772L512.435 34.3118C512.628 34.2001 512.84 34.1466 513.048 34.1466C513.473 34.1466 513.885 34.3683 514.113 34.7615C514.451 35.3481 514.25 36.1015 513.663 36.4396L503.678 42.2035C503.484 42.3168 503.273 42.3687 503.066 42.3687" fill="#899EA2"/>
<path d="M503.066 48.1357C502.638 48.1357 502.226 47.9155 501.999 47.5208C501.659 46.9326 501.861 46.1809 502.447 45.8427L512.435 40.0788C512.628 39.9655 512.84 39.9121 513.048 39.9121C513.473 39.9121 513.885 40.1338 514.113 40.527C514.451 41.1152 514.25 41.8669 513.663 42.2066L503.678 47.9706C503.484 48.0823 503.273 48.1357 503.066 48.1357" fill="#899EA2"/>
<path d="M503.066 53.9014C502.638 53.9014 502.226 53.6812 501.999 53.2864C501.659 52.6998 501.861 51.9481 502.447 51.6084L512.435 45.8444C512.628 45.7312 512.84 45.6777 513.048 45.6777C513.473 45.6777 513.885 45.8994 514.113 46.2942C514.451 46.8824 514.25 47.6325 513.663 47.9722L503.678 53.7362C503.484 53.8478 503.273 53.9014 503.066 53.9014" fill="#899EA2"/>
<path d="M126.104 252.437V275.507L119.434 271.657V248.602L126.104 252.437Z" fill="#DADBD8"/>
<path d="M395.642 154.291C395.513 154.366 395.399 154.375 395.302 154.319C395.205 154.263 395.156 154.16 395.156 154.011C395.156 153.861 395.164 153.754 395.181 153.688L401.207 132.058C401.336 131.572 401.595 131.216 401.984 130.992L403.636 130.038C404.025 129.814 404.284 129.87 404.414 130.207L410.415 144.894L410.464 145.175C410.464 145.324 410.415 145.483 410.318 145.652C410.221 145.82 410.108 145.941 409.978 146.016L408.739 146.732C408.561 146.834 408.423 146.867 408.326 146.83C408.229 146.774 408.164 146.699 408.131 146.605L406.795 143.393L398.825 147.993L397.489 152.748C397.457 152.879 397.384 153.034 397.27 153.211C397.173 153.361 397.044 153.483 396.882 153.576L395.642 154.291ZM406.09 141.387L402.81 133.321L399.53 145.174L406.09 141.387ZM418.991 141.094C417.241 142.104 415.913 142.17 415.006 141.29V142.469C415.006 142.656 414.949 142.848 414.836 143.044C414.739 143.212 414.609 143.343 414.447 143.437L413.329 144.082C413.167 144.175 413.03 144.199 412.916 144.152C412.819 144.077 412.77 143.946 412.77 143.759V125.13C412.77 124.943 412.819 124.766 412.916 124.597C413.03 124.401 413.167 124.256 413.329 124.162L414.52 123.475C414.682 123.382 414.811 123.372 414.909 123.447C415.006 123.503 415.054 123.625 415.054 123.812V130.265C416.01 128.348 417.322 126.908 418.991 125.944C420.675 124.972 421.947 124.883 422.806 125.678C423.664 126.455 424.126 127.787 424.191 129.676C424.207 129.873 424.215 130.149 424.215 130.504C424.215 130.859 424.207 131.145 424.191 131.36C424.126 133.342 423.664 135.217 422.806 136.985C421.947 138.752 420.675 140.122 418.991 141.094ZM418.48 139.116C419.631 138.453 420.465 137.56 420.983 136.437C421.518 135.306 421.809 134.053 421.858 132.678C421.874 132.482 421.882 132.206 421.882 131.85C421.882 128.315 420.748 127.202 418.48 128.511C417.395 129.138 416.561 130.031 415.978 131.191C415.395 132.35 415.087 133.491 415.054 134.613L415.03 135.721L415.054 136.774C415.103 137.924 415.403 138.77 415.954 139.313C416.52 139.827 417.363 139.762 418.48 139.116ZM432.372 133.37C430.59 134.399 429.205 134.618 428.217 134.029C427.245 133.43 426.727 132.187 426.662 130.298L426.638 129.105L426.662 127.885C426.727 125.94 427.253 124.102 428.242 122.372C429.23 120.623 430.607 119.239 432.372 118.22C434.138 117.201 435.515 116.995 436.503 117.603C437.491 118.193 438.017 119.422 438.082 121.293C438.098 121.489 438.107 121.887 438.107 122.485C438.107 123.084 438.098 123.49 438.082 123.706C438.017 125.669 437.491 127.516 436.503 129.246C435.531 130.967 434.154 132.342 432.372 133.37ZM432.372 131.21C433.393 130.621 434.195 129.784 434.778 128.699C435.377 127.605 435.701 126.343 435.75 124.912C435.766 124.715 435.774 124.355 435.774 123.832C435.774 123.308 435.766 122.957 435.75 122.78C435.701 121.405 435.377 120.516 434.778 120.114C434.195 119.703 433.393 119.791 432.372 120.38C431.352 120.97 430.542 121.811 429.942 122.905C429.343 123.999 429.027 125.257 428.995 126.679L428.971 127.759L428.995 128.811C429.027 130.195 429.343 131.088 429.942 131.49C430.542 131.892 431.352 131.799 432.372 131.21ZM445.863 125.583C444.324 126.471 443.133 126.588 442.291 125.933C441.449 125.26 441.028 123.969 441.028 122.061V114.15C441.028 113.963 441.076 113.785 441.173 113.617C441.287 113.42 441.425 113.275 441.586 113.182L442.801 112.481C442.963 112.387 443.093 112.378 443.19 112.453C443.304 112.499 443.36 112.616 443.36 112.803V120.575C443.36 123.362 444.413 124.147 446.519 122.932C447.539 122.343 448.349 121.51 448.949 120.435C449.548 119.341 449.848 118.139 449.848 116.83V109.059C449.848 108.872 449.896 108.694 449.994 108.526C450.107 108.329 450.245 108.184 450.407 108.091L451.622 107.389C451.784 107.296 451.913 107.287 452.01 107.361C452.107 107.418 452.156 107.539 452.156 107.726V121.024C452.156 121.211 452.107 121.398 452.01 121.585C451.913 121.754 451.784 121.885 451.622 121.978L450.48 122.637C450.318 122.731 450.18 122.754 450.066 122.708C449.969 122.633 449.921 122.502 449.921 122.315V121.08C449.467 122.053 448.916 122.913 448.268 123.661C447.62 124.391 446.819 125.031 445.863 125.583ZM460.698 116.739C458.139 118.216 456.859 117.309 456.859 114.017V106.61L454.964 107.704C454.802 107.798 454.664 107.821 454.551 107.775C454.454 107.7 454.405 107.569 454.405 107.382V106.428C454.405 106.241 454.454 106.063 454.551 105.895C454.664 105.698 454.802 105.554 454.964 105.46L456.859 104.366V99.6808C456.859 99.4937 456.908 99.3161 457.005 99.1477C457.118 98.9513 457.256 98.8064 457.418 98.7129L458.56 98.0537C458.722 97.9602 458.852 97.9509 458.949 98.0257C459.062 98.0724 459.119 98.1894 459.119 98.3764V103.062L462.132 101.322C462.294 101.229 462.423 101.22 462.521 101.294C462.634 101.341 462.691 101.458 462.691 101.645V102.599C462.691 102.786 462.634 102.978 462.521 103.174C462.423 103.342 462.294 103.473 462.132 103.567L459.119 105.306V112.516C459.119 113.452 459.257 114.083 459.532 114.41C459.807 114.719 460.261 114.691 460.893 114.326L462.375 113.47C462.537 113.377 462.666 113.368 462.764 113.442C462.877 113.489 462.934 113.606 462.934 113.793V114.803C462.934 114.99 462.877 115.182 462.764 115.378C462.666 115.547 462.537 115.678 462.375 115.771L460.698 116.739ZM475.927 108.229C474.388 109.117 473.197 109.234 472.355 108.579C471.513 107.906 471.092 106.615 471.092 104.708V96.7959C471.092 96.6089 471.14 96.4312 471.237 96.2629C471.351 96.0665 471.488 95.9216 471.65 95.8281L472.865 95.1268C473.027 95.0333 473.157 95.0239 473.254 95.0988C473.367 95.1455 473.424 95.2624 473.424 95.4495V103.221C473.424 106.008 474.477 106.793 476.583 105.578C477.603 104.989 478.413 104.156 479.013 103.081C479.612 101.987 479.912 100.785 479.912 99.476V91.7046C479.912 91.5176 479.96 91.3399 480.058 91.1716C480.171 90.9752 480.309 90.8303 480.471 90.7368L481.685 90.0355C481.847 89.942 481.977 89.9326 482.074 90.0075C482.171 90.0636 482.22 90.1852 482.22 90.3722V103.67C482.22 103.858 482.171 104.045 482.074 104.232C481.977 104.4 481.847 104.531 481.685 104.624L480.543 105.284C480.381 105.377 480.244 105.4 480.13 105.354C480.033 105.279 479.985 105.148 479.985 104.961V103.726C479.531 104.699 478.98 105.559 478.332 106.307C477.684 107.037 476.883 107.677 475.927 108.229ZM490.203 99.988C489.07 100.643 488.114 100.988 487.336 101.026C486.575 101.035 486 100.881 485.611 100.563C485.239 100.235 485.052 99.894 485.052 99.5387C485.052 99.3516 485.109 99.1786 485.222 99.0197C485.352 98.8326 485.482 98.7017 485.611 98.6269L486.705 97.9958C486.867 97.9023 487.012 97.9116 487.142 98.0239C487.531 98.3232 487.952 98.4915 488.405 98.529C488.859 98.5664 489.466 98.3654 490.228 97.9259C491.07 97.4397 491.75 96.86 492.269 96.1867C492.803 95.4853 493.071 94.798 493.071 94.1247C493.071 93.6758 492.957 93.3765 492.73 93.2269C492.52 93.0492 492.147 93.0117 491.613 93.1146C491.094 93.1893 490.317 93.395 489.28 93.7316C487.871 94.1897 486.867 94.2551 486.267 93.9277C485.684 93.591 485.392 92.8896 485.392 91.8235C485.392 91.1127 485.571 90.3365 485.927 89.4949C486.3 88.6252 486.834 87.793 487.531 86.9981C488.243 86.1752 489.094 85.4786 490.082 84.9082C491.119 84.3098 492.001 83.9966 492.73 83.9686C493.459 83.9406 494.002 84.0949 494.358 84.4316C494.731 84.7403 494.917 85.0723 494.917 85.4277C494.917 85.596 494.861 85.769 494.747 85.9467C494.65 86.115 494.528 86.2412 494.383 86.3254L493.362 86.9145C493.168 87.0267 493.006 87.0266 492.876 86.9144C492.617 86.7086 492.39 86.5684 492.196 86.4935C492.018 86.3906 491.75 86.3672 491.394 86.4233C491.054 86.47 490.616 86.6477 490.082 86.9563C489.304 87.4051 488.705 87.9474 488.284 88.5833C487.863 89.2005 487.652 89.8177 487.652 90.4349C487.652 90.8277 487.741 91.1129 487.919 91.2906C488.098 91.4496 488.438 91.4964 488.94 91.431C489.458 91.3562 490.203 91.1599 491.175 90.842C492.714 90.3278 493.8 90.2437 494.431 90.5898C495.079 90.9078 495.403 91.6092 495.403 92.694C495.403 93.4983 495.201 94.3446 494.796 95.233C494.391 96.1214 493.791 96.9817 492.998 97.814C492.22 98.6368 491.289 99.3615 490.203 99.988Z" fill="#545454"/>
<path d="M142.828 530.829L143.143 353.969L251.766 291.268V374.505C248.062 371.226 244.84 368.446 243.216 367.213C239.535 364.419 235.821 363.845 233.387 363.845C231.687 363.845 230.612 364.125 230.612 364.125L214.005 364.857L196.807 367.217C196.805 367.216 196.805 367.216 196.805 367.214C196.733 367.214 196.66 367.214 196.588 367.214C189.637 367.214 183.298 368.524 178.245 378.253C173.35 387.68 169.586 407.65 167.685 414.169C167.685 414.169 168.019 414.365 168.623 414.689C167.835 418.918 167.138 423.445 166.537 428.274C165.57 436.045 165.466 451.223 164.933 464.17C164.727 469.143 164.78 475.452 165.205 479.354C166.677 492.898 170.643 498.7 176.145 499.905C177.784 500.265 179.134 500.436 180.227 500.436C184.99 500.436 184.86 497.165 182.281 491.851C179.942 487.029 180.337 481.037 180.337 481.037C181.896 482.658 183.156 483.907 184.205 484.522C184.907 484.934 185.552 485.091 186.116 485.091C187.23 485.091 188.034 484.476 188.352 483.983C188.726 483.405 187.276 482.555 185.871 480.147C184.078 477.072 183.266 474.718 180.597 471.992C179.601 470.976 178.961 469.63 178.866 468.183C178.33 460.012 180.395 443.386 182.176 433.824C183.044 429.164 184.19 424.484 185.442 420.038C185.984 420.076 186.527 420.095 187.068 420.095C187.181 420.095 187.293 420.095 187.406 420.092L189.42 413.109L189.498 414.199L189.305 456.635C193.518 461.406 204.686 463.715 216.62 463.715C229.505 463.715 243.285 461.026 250.184 455.839C250.184 455.839 249.327 424.399 248.524 401.7L251.766 403.986V468.309L142.828 530.829Z" fill="#36BEEC"/>
<path d="M273.551 292.907C271.999 292.907 270.934 291.668 270.934 289.516L270.935 288.969C270.935 285.929 273.071 282.231 275.705 280.712L406.74 205.073C407.528 204.619 408.271 204.403 408.925 204.403C410.459 204.403 411.51 205.587 411.51 207.651C411.51 210.595 409.38 214.223 406.754 215.756L275.687 292.246C274.92 292.695 274.193 292.907 273.551 292.907Z" fill="#3E7094"/>
<path d="M272.739 311.498C271.665 311.498 270.934 310.694 270.934 309.282C270.934 307.245 272.459 304.715 274.339 303.628L491.166 178.469C491.745 178.136 492.289 177.977 492.765 177.977C493.841 177.977 494.571 178.781 494.571 180.191C494.571 182.229 493.047 184.762 491.166 185.847L274.339 311.006C273.76 311.339 273.216 311.498 272.739 311.498Z" fill="#36BEEC"/>
<path d="M272.739 326.306C271.665 326.306 270.934 325.503 270.934 324.092C270.934 322.055 272.459 319.523 274.339 318.438L382.223 256.164L386.801 258.859C386.186 259.822 385.627 260.824 385.127 261.865L274.339 325.814C273.76 326.148 273.216 326.306 272.739 326.306ZM387.851 257.324C387.85 257.291 387.85 257.258 387.848 257.224C387.886 257.208 387.925 257.192 387.963 257.175C387.925 257.224 387.888 257.276 387.851 257.324ZM386.945 254.903C386.689 254.596 386.393 254.321 386.038 254.111C385.995 254.086 385.951 254.061 385.907 254.038L386.615 253.629L386.945 254.903ZM390.088 254.645C390.175 254.321 390.22 253.983 390.219 253.641C390.219 253.33 390.179 253.015 390.098 252.702C390.016 252.386 389.895 252.091 389.744 251.823L491.166 193.279C491.745 192.944 492.289 192.787 492.765 192.787C493.841 192.787 494.571 193.591 494.571 195.001C494.571 197.038 493.047 199.57 491.166 200.657L412.123 246.283C411.272 246.199 410.41 246.155 409.539 246.155C409.49 246.155 409.441 246.157 409.394 246.157C401.842 246.198 395.007 249.441 390.088 254.645" fill="#36BEEC"/>
<path d="M272.739 341.117C271.665 341.117 270.934 340.313 270.934 338.902C270.934 336.866 272.459 334.334 274.339 333.248L382.503 270.812C382.355 272.009 382.278 273.231 382.278 274.47C382.278 274.516 382.278 274.561 382.28 274.607C382.275 274.804 382.273 274.999 382.273 275.194C382.273 276.219 382.33 277.23 382.442 278.224L274.339 340.624C273.76 340.958 273.216 341.117 272.739 341.117V341.117ZM426.817 252.611C424.998 251.049 422.982 249.73 420.812 248.698L491.166 208.088C491.745 207.754 492.289 207.596 492.765 207.596C493.84 207.596 494.571 208.401 494.571 209.812C494.571 211.848 493.047 214.38 491.166 215.465L426.817 252.611" fill="#36BEEC"/>
<path d="M272.739 355.925C271.665 355.925 270.934 355.123 270.934 353.711C270.934 351.674 272.459 349.144 274.339 348.057L384.02 284.746C384.789 286.767 385.794 288.664 387.002 290.402L274.339 355.435C273.76 355.768 273.216 355.925 272.739 355.925ZM434.413 263.035C433.57 261.049 432.514 259.183 431.276 257.468L491.166 222.898C491.745 222.565 492.289 222.406 492.765 222.406C493.841 222.406 494.571 223.209 494.571 224.62C494.571 226.658 493.047 229.19 491.166 230.276L434.413 263.035Z" fill="#36BEEC"/>
<path d="M272.739 370.735C271.665 370.735 270.934 369.932 270.934 368.521C270.934 366.484 272.459 363.952 274.339 362.867L391.049 294.962C391.952 295.763 392.912 296.499 393.92 297.161C389.84 297.796 386.867 300.752 386.354 305.07L274.339 370.243C273.76 370.577 273.216 370.735 272.739 370.735" fill="#36BEEC"/>
<path d="M276.15 398.818C274.866 397.657 273.433 396.363 271.912 394.988C272.53 393.952 273.389 393.035 274.339 392.486L298.218 378.703C295.588 382.592 291.191 387.719 286.705 392.725L276.15 398.818V398.818ZM313.6 377.199C314.089 376.26 314.535 375.383 314.925 374.614C316.34 371.822 317.358 369.395 318.028 367.268L385.819 328.136C385.243 331.437 384.429 334.442 383.713 336.729L313.6 377.199V377.199ZM430.98 309.444C428.555 308.176 425.736 307.596 421.898 307.311L491.166 267.327C491.745 266.994 492.289 266.835 492.765 266.835C493.841 266.835 494.571 267.638 494.571 269.049C494.571 271.087 493.047 273.619 491.166 274.704L430.98 309.444Z" fill="#36BEEC"/>
<path d="M298.022 401.002C301.096 396.586 304.066 392.209 306.514 388.724L383.239 344.435L385.257 350.647L298.022 401.002V401.002ZM440.143 318.965C438.424 316.62 437.052 314.808 436.278 313.895C436.262 313.877 436.25 313.862 436.234 313.844L491.166 282.137C491.744 281.802 492.289 281.645 492.765 281.645C493.841 281.645 494.571 282.449 494.571 283.859C494.571 285.896 493.047 288.428 491.166 289.515L440.143 318.965" fill="#36BEEC"/>
<path d="M272.739 429.974C271.665 429.974 270.934 429.171 270.934 427.76C270.934 425.722 272.459 423.191 274.339 422.106L278.788 419.538C279.244 419.623 279.706 419.664 280.166 419.664C282.355 419.664 284.518 418.719 286.036 416.987C286.859 416.047 287.729 414.993 288.63 413.856L387.291 356.907L389.31 363.119L274.339 429.482C273.76 429.816 273.216 429.974 272.739 429.974V429.974ZM447.656 329.439C446.385 327.645 445.13 325.877 443.934 324.21L491.166 296.946C491.745 296.612 492.289 296.453 492.765 296.453C493.84 296.453 494.571 297.257 494.571 298.669C494.571 300.706 493.047 303.238 491.166 304.323L447.656 329.439" fill="#36BEEC"/>
<path d="M272.739 444.785C271.665 444.785 270.934 443.981 270.934 442.569C270.934 440.532 272.459 438.002 274.339 436.915L354.002 390.427C354.58 390.092 355.125 389.935 355.601 389.935C356.676 389.935 357.407 390.739 357.407 392.149C357.407 394.186 355.881 396.718 354.002 397.805L274.339 444.292C273.76 444.626 273.216 444.785 272.739 444.785Z" fill="#36BEEC"/>
<path d="M564.083 351.909C575.608 314.505 586.827 289.872 575.399 282.246C564.755 284.216 559.987 289.48 557.726 303.509C555.353 318.224 550.42 338.721 547.541 350.559C545.243 360.01 540.758 371.891 536.915 379.124C536.236 380.404 535.099 381.372 533.774 381.889C530.222 383.279 528.515 385.094 525.619 387.164C523.35 388.784 521.679 388.965 521.783 389.644C521.915 390.52 522.939 392.097 525.344 391.838C526.552 391.707 528.215 391.085 530.301 390.245C530.301 390.245 528.202 395.872 524.092 399.31C518.52 403.968 519.353 408.628 528.324 409.172C531.536 409.367 538.982 406.437 545.88 394.689C547.867 391.303 550.174 385.763 552.027 381.144C556.852 369.117 561.777 359.395 564.083 351.909" fill="#F6879F"/>
<path d="M577.435 281.802C577.435 281.802 568.564 281.34 563.191 287.264C557.819 293.19 551.54 328.612 551.54 328.612C551.54 328.612 557.427 336.702 572.945 333.39L577.435 281.802" fill="#26B6A6"/>
<path d="M561.453 333.813C554.418 332.566 551.54 328.612 551.54 328.612C551.54 328.612 557.819 293.19 563.191 287.264C567.839 282.139 575.105 281.793 576.98 281.793C577.273 281.793 577.435 281.802 577.435 281.802C566.002 283.872 563.194 290.754 562.596 303.612C562.263 310.798 561.846 322.255 561.453 333.813Z" fill="#4F7D9E"/>
<path d="M618.937 554.291H607.026V533.059H618.937V554.291Z" fill="#F6879F"/>
<path d="M577.641 531.925L565.736 532.351L565.142 509.882L577.641 509.456V531.925" fill="#F6879F"/>
<path d="M620.612 349.233C620.612 361.077 618.869 456.39 618.869 456.39C619.146 459.798 622.215 466.081 621.55 479.17C620.649 496.951 619.445 543.675 619.445 543.675C619.445 543.675 613.663 547.193 606.183 543.947C606.183 543.947 594.919 479.232 592.784 461.611C590.922 446.231 587.761 394.458 587.761 394.458L581.306 454.66C581.306 454.66 583.5 463.83 582.781 474.37C582.224 482.52 578.394 524.966 578.394 524.966C578.394 524.966 572.788 528.927 564.643 526.062C564.643 526.062 557.869 462.136 557.731 454.658C557.574 446.134 561.69 349.106 561.69 349.106L620.612 349.233" fill="#273E47"/>
<path d="M607.026 548.168V546.394C605.886 546.911 603.239 557.431 598.512 561.919C594.757 565.488 589.63 569.61 588.328 573.588C586.972 577.725 595.465 580.009 598.974 579.361C603.053 578.609 610.12 575.62 611.895 572.847C613.669 570.076 614.5 565.987 615.942 563.955C617.383 561.922 620.708 559.655 621.489 557.304C621.915 556.013 621.407 553.184 620.806 550.792C620.254 548.6 619.656 546.189 618.937 546.394C618.934 546.661 618.937 547.746 618.937 547.746C618.072 548.745 615.68 549.736 612.982 549.843C611.239 549.912 607.012 549.552 607.026 548.168" fill="#17282F"/>
<path d="M565.611 528.528C564.994 528.55 564.491 529.457 563.125 530.996C561.477 532.854 558.78 534.858 556.119 536.245C551.659 538.57 542.989 542.146 539.064 543.988C536.613 545.137 536.728 548.221 539.261 549.975C541.797 551.73 547.914 552.994 555.26 551.283C559.262 550.352 564.472 546.502 567.769 546.71C571.067 546.918 577.237 546.869 579.672 545.122C582.105 543.374 581.131 539.644 580.442 536.437C579.694 532.938 578.755 527.482 577.641 527.721V528.927C576.209 531.184 568.819 532.104 565.673 530.442L565.611 528.528" fill="#17282F"/>
<path d="M587.762 394.458C587.762 394.458 578.243 391.665 571.176 384.555C571.176 384.555 574.377 390.794 583.894 396.602L581.858 450.363L587.762 394.458Z" fill="#17282F"/>
<path d="M614.416 284.633C614.416 284.633 623.738 285.485 623.076 303.238L621.015 331.517L621.072 373.953C612.313 383.875 573.486 383.149 560.193 373.159C560.193 373.159 561.7 322.938 562.596 303.612C563.235 289.875 566.397 282.958 579.901 281.445L596.511 282.175L614.416 284.633" fill="#3E7094"/>
<path d="M586.449 309.645L580.829 308.758L585.811 308.853L587.95 293.943L586.449 309.645Z" fill="#135C92"/>
<path d="M600.371 244.627C600.371 254.824 592.432 263.09 582.64 263.09C572.846 263.09 565.349 254.814 564.907 244.627C564.127 226.595 572.846 226.161 582.64 226.161C592.432 226.161 600.371 234.429 600.371 244.627Z" fill="#17282F"/>
<path d="M610.477 253.784C610.477 253.784 607.758 267.089 606.668 269.276C605.577 271.462 603.323 272.083 603.323 272.083L603.514 262.724L610.477 253.784" fill="#17282F"/>
<path d="M607.064 234.723C607.064 234.723 609.014 234.236 611.086 237.471C612.86 240.245 613.265 246.476 610.477 253.784L605.354 254.396L607.064 234.723" fill="#17282F"/>
<path d="M603.817 254.401C604.846 255.039 606.31 252.985 607.578 251.605C608.845 250.225 612.98 248.338 615.042 252.864C617.145 257.477 613.222 263.573 609.966 264.638C604.355 266.471 603.514 262.724 603.514 262.724L603.086 283.798C595.636 295.318 578.764 294.901 584.829 283.241L584.847 276.828C584.847 276.828 579.761 277.63 577.282 277.232C573.156 276.567 570.56 273.176 569.308 268.525C567.298 261.055 566.534 255.024 568.24 240.331C570.111 224.229 588.096 224.06 597.808 230.427C607.522 236.793 603.817 254.401 603.817 254.401" fill="#F6879F"/>
<path d="M603.18 279.073C603.18 279.073 600.56 284.738 595.885 288.212C591.589 291.405 587.06 291.963 587.06 291.963C587.06 291.963 591.428 294.857 593.288 298.954C595.145 303.051 608.252 291.773 608.134 283.771C608.134 283.771 606.076 275.733 603.259 275.217L603.18 279.073" fill="#17282F"/>
<path d="M587.06 291.963C587.06 291.963 583.019 289.955 584.829 283.241L584.847 276.828L583.075 277.064C581.698 278.306 579.527 281.227 578.817 284.44C578.412 286.275 577.414 295.581 579.19 297.43C580.807 299.113 583.437 292.463 587.06 291.963" fill="#17282F"/>
<path d="M596.924 236.843C597.392 236.787 597.884 236.739 598.312 236.934C599.836 237.626 600.163 242.365 600.432 243.735C601.334 248.348 602.082 256.165 603.817 256.2C604.336 256.211 606.3 252.817 607.578 251.605C609.35 249.927 607.064 234.723 607.064 234.723C607.064 234.723 608.766 230.944 605.354 227.034C602.167 223.379 597.152 222.573 592.573 222.319C587.178 222.022 581.699 222.431 576.384 221.25C574.694 220.876 573.033 220.341 571.311 220.163C571.152 220.146 570.974 220.138 570.848 220.24C570.675 220.382 570.701 220.649 570.746 220.869C571.076 222.461 571.644 224.004 572.428 225.429C569.264 225.177 566.129 224.56 563.106 223.596C562.931 223.54 562.746 223.485 562.574 223.538C562.217 223.651 562.156 224.123 562.176 224.496C562.392 228.314 564.201 234.06 567.3 236.304C569.721 238.057 573.519 239.128 576.503 239.205C584.845 239.421 590.023 237.659 596.924 236.843" fill="#17282F"/>
<path d="M607.055 235.525L613.265 232.053C612.384 230.2 610.279 229.475 608.563 230.434C606.849 231.394 606.174 233.673 607.055 235.525Z" fill="#17282F"/>
<path d="M584.845 276.828C584.845 276.828 594.057 274.895 597.277 273.111C599.432 271.919 601.206 269.851 601.729 268.525C601.729 268.525 601.126 271.372 599.199 273.935C596.844 277.07 584.847 279.379 584.847 279.379L584.845 276.828" fill="#F47089"/>
<path d="M587.06 252.003C587.06 253.107 587.887 253.998 588.905 253.995C589.924 253.992 590.752 253.096 590.752 251.991C590.752 250.889 589.924 249.997 588.905 250C587.887 250.004 587.06 250.9 587.06 252.003" fill="#17282F"/>
<path d="M590.023 244.045L593.973 246.314C594.555 245.133 594.143 243.667 593.053 243.041C591.961 242.414 590.605 242.864 590.023 244.045Z" fill="#17282F"/>
<path d="M585.68 265.281L581.466 266.927C581.883 268.186 583.165 268.835 584.329 268.382C585.492 267.926 586.097 266.537 585.68 265.281Z" fill="#F47089"/>
<path d="M570.126 245.737L573.729 242.848C572.994 241.775 571.591 241.552 570.597 242.348C569.603 243.145 569.393 244.663 570.126 245.737" fill="#17282F"/>
<path d="M571.707 251.455C571.707 252.559 572.534 253.449 573.554 253.446C574.575 253.445 575.399 252.548 575.399 251.446C575.399 250.342 574.575 249.45 573.554 249.453C572.534 249.456 571.707 250.353 571.707 251.455Z" fill="#17282F"/>
<path d="M581.586 249.912L581.372 261.569L574.756 260.052L581.586 249.912Z" fill="#F47089"/>
<path d="M632.539 261.629C635.196 258.105 640.577 265.929 643.068 271.322C645.556 276.714 645.591 279.769 643.557 281.911C641.521 284.051 637.661 282.752 633.799 277.644C629.938 272.534 631.021 264.232 632.539 261.629" fill="#26B6A6"/>
<path d="M642.965 282.002C642.577 282.002 642.002 281.911 641.26 281.546C642.416 279.709 643.572 277.8 644.71 275.809C644.914 276.662 645.013 277.432 645.013 278.131C645.013 279.692 644.515 280.902 643.557 281.911C643.557 281.911 643.354 282.002 642.965 282.002ZM632.041 263.269C632.105 262.827 632.184 262.466 632.258 262.192C632.349 261.983 632.443 261.794 632.539 261.629C632.912 261.135 633.337 260.865 633.801 260.778C633.236 261.601 632.648 262.431 632.041 263.269" fill="#0B7465"/>
<path d="M651.25 262.678C641.87 284.756 628.679 297.101 622.78 311.27C615.044 310.743 609.024 292.089 614.781 284.111C614.781 284.111 637.406 259.624 639.456 250C641.272 241.458 643.717 227.366 643.501 220.154C643.465 218.947 642.93 217.836 642.109 216.952C639.736 214.398 639.733 212.347 638.21 209.525C637.021 207.327 635.72 206.504 636.089 206.009C636.568 205.373 638.071 204.545 639.943 205.726C640.884 206.32 641.497 207.017 642.863 208.525C642.863 208.525 643.472 204.634 641.527 200.253C638.894 194.314 639.536 191.284 647.554 193.399C652.578 194.725 655.733 198.908 656.485 210.983C656.704 214.46 656.985 221.663 656.573 226.061C655.703 235.354 655.143 245.04 654.001 252.734C653.493 256.15 652.601 259.501 651.25 262.678" fill="#F6879F"/>
<path d="M612.494 284.369L632.457 261.569C632.457 261.569 630.087 267.13 635.276 275.217C640.469 283.304 643.556 281.911 643.556 281.911C643.556 281.911 631.779 299.1 628.619 304.855C625.459 310.609 622.184 315.461 622.184 315.461C622.184 315.461 621.396 317.493 618.462 317.493C615.527 317.493 607.767 304.503 612.494 284.369" fill="#26B6A6"/>
<path d="M618.462 317.493C616.183 317.493 610.997 309.663 611.003 296.74C611.005 293.017 611.437 288.871 612.494 284.369L632.457 261.569C632.457 261.569 631.918 262.832 631.916 265.029C631.915 267.443 632.56 270.983 635.276 275.217C639.138 281.23 641.836 282.002 642.965 282.002C643.354 282.002 643.557 281.911 643.557 281.911C643.557 281.911 631.779 299.1 628.619 304.855C625.459 310.609 622.184 315.461 622.184 315.461C622.184 315.461 621.396 317.493 618.462 317.493" fill="#4F7D9E"/>
<path d="M450.63 335.625L460.026 348.134L449.933 359.698L436.928 344.492L450.63 335.625" fill="#F47089"/>
<path d="M419.887 307.192C428.083 307.576 431.988 308.842 436.278 313.895C440.465 318.827 462.027 349.973 462.027 349.973C462.027 349.973 458.234 360.604 449.933 359.698L434.843 344.146L419.887 307.192" fill="#33535F"/>
<path d="M379.676 566.884C379.409 568.86 378.842 571.164 378.737 576.752C378.622 582.739 377.523 584.866 377.376 589.78C377.211 595.396 378.18 597.497 380.459 600.654C382.74 603.81 388.721 606.676 391.25 601.34C393.81 595.939 393.453 592.508 392.644 587C391.809 581.305 391.703 578.157 391.219 573.815C390.793 569.986 390.28 567.078 390.28 567.078L379.676 566.884" fill="#17282F"/>
<path d="M396.681 519.795L376.949 519.438C377.241 532.606 379.335 554.529 379.676 566.884C379.741 569.211 379.618 584.959 380.496 589.744C381.816 596.934 390.351 595.964 390.804 591.661C391.257 587.358 390.253 568.973 390.28 567.078C390.206 559.153 393.92 538.472 395.869 524.245C395.965 523.547 396.589 520.476 396.681 519.795" fill="#F8A39A"/>
<path d="M425.679 556.638C425.679 556.638 424.66 556.697 424.498 557.527C424.308 558.517 424.265 560.078 423.853 561.701C423.282 563.957 422.807 567.674 423.15 569.513C423.493 571.351 427.691 574.089 430.562 574.572C433.433 575.053 437.485 577.89 439.736 580.007C442.493 582.6 448.441 585.051 452.491 585.023C457.284 584.988 460.625 583.425 462.205 580.861C463.855 578.18 460.767 577.983 455.288 574.43C454.044 573.622 452.628 572.71 451.035 571.67C442.356 566.002 439.179 562.966 436.725 557.296L425.679 556.638" fill="#17282F"/>
<path d="M436.793 553.555C436.647 549.476 438.737 519.438 438.737 519.438L421.764 521.349C425.777 545.293 426.103 553.452 425.645 556.937C425.613 557.029 425.535 557.36 425.538 557.939C425.555 562.593 430.806 565.101 434.904 568.203C436.521 569.428 440.678 573.203 445.553 574.863C448.707 575.936 454.536 576.343 455.285 574.427C450.3 570.621 443.516 565.65 439.552 561.303C437.66 559.229 436.939 557.633 436.793 553.555Z" fill="#F8A39A"/>
<path d="M381.526 383.613C372.266 403.831 381.86 475.053 381.86 475.053C381.581 478.335 377.828 484.791 376.431 499.232C374.78 516.294 379.48 561.97 379.48 561.97C379.48 561.97 383.988 565.342 390.529 562.206C390.529 562.206 402.474 495.091 404.615 478.126C406.482 463.322 410.069 430.767 410.069 430.767L420.257 478.047C420.257 478.047 417.643 486.34 417.029 492.659C416.064 502.638 425.782 552.719 425.782 552.719C425.782 552.719 430.329 555.119 436.791 552.504C436.791 552.504 441.098 487.803 441.998 475.783C443.513 455.594 438.15 392.604 434.447 380.654L381.526 383.613" fill="#26B6A6"/>
<path d="M384.993 563.541C381.581 563.541 379.479 561.97 379.479 561.97C379.479 561.97 376.079 528.923 376.079 508.548C376.079 504.969 376.184 501.781 376.431 499.232C377.828 484.791 381.581 478.335 381.859 475.053C381.859 475.053 377.991 446.331 377.538 420.189C377.527 419.585 377.519 418.989 377.513 418.388C377.501 417.379 377.496 416.372 377.496 415.375C377.494 405.063 378.116 395.48 379.83 388.642C384.033 393.258 395.184 397.328 407.649 397.33C415.705 397.33 424.309 395.63 431.944 391.278L430.279 398.119L437.195 396.111C439.795 415.96 442.259 448.073 442.262 466.902C442.262 470.365 442.178 473.376 441.998 475.783C441.098 487.803 436.791 552.504 436.791 552.504C434.512 553.427 432.471 553.724 430.783 553.724C427.688 553.724 425.781 552.719 425.781 552.719C425.781 552.719 416.961 507.27 416.961 494.337C416.961 493.694 416.983 493.133 417.029 492.659C417.642 486.34 420.257 478.047 420.257 478.047L410.068 430.767L419.047 472.159L413.145 428.381L416.519 413.923C425.508 411.459 431.559 403.934 431.559 403.934C425.792 409.355 413.074 411.989 413.074 411.989L410.068 430.767C410.068 430.767 406.482 463.322 404.615 478.126C402.474 495.091 390.528 562.206 390.528 562.206C388.452 563.201 386.582 563.541 384.993 563.541Z" fill="#36BEEC"/>
<path d="M419.048 472.159L410.069 430.767L413.075 411.989C413.075 411.989 425.793 409.355 431.559 403.934C431.559 403.934 425.508 411.459 416.52 413.923L413.146 428.381L419.048 472.159" fill="#14A1D1"/>
<path d="M386.275 320.808L398.872 324.087V297.469C391.916 295.658 386.275 299.67 386.275 306.429V320.808" fill="#26B6A6"/>
<path d="M386.556 320.882L386.275 320.808V315.804C386.509 317.463 386.591 319.171 386.556 320.882ZM386.275 310.322V306.429C386.275 301.378 389.424 297.861 393.92 297.161C395.455 298.171 397.105 299.011 398.845 299.655L398.872 308.158L397.538 308.277C397.538 308.277 390.321 309.299 386.275 310.322" fill="#0B584B"/>
<path d="M411.19 301.253L406.669 301.15C392.896 300.833 381.975 288.95 382.28 274.607C382.201 258.974 394.383 246.237 409.394 246.157C424.407 246.075 436.639 258.682 436.717 274.314L436.679 275.928C436.336 290.241 424.937 301.569 411.19 301.253" fill="#26B6A6"/>
<path d="M398.845 299.655C394.043 297.877 389.931 294.61 387.002 290.402C385.794 288.664 384.789 286.767 384.02 284.746C383.235 282.686 382.697 280.5 382.442 278.224C382.33 277.23 382.273 276.219 382.273 275.194C382.273 274.999 382.275 274.804 382.28 274.607C382.278 274.561 382.278 274.516 382.278 274.47C382.277 268.703 383.941 263.337 386.801 258.859L387.439 259.235C387.726 258.666 387.853 258.053 387.853 257.447C387.853 257.406 387.853 257.365 387.851 257.325C387.888 257.276 387.925 257.224 387.963 257.175C389.023 256.697 389.794 255.744 390.088 254.645C395.007 249.441 401.842 246.198 409.394 246.157C409.441 246.157 409.49 246.155 409.539 246.155C424.485 246.155 436.639 258.731 436.717 274.314L436.68 275.928C436.546 281.456 434.765 286.538 431.836 290.675C432.151 288.736 432.357 286.453 432.402 283.762C432.675 267.995 429.289 262.599 426.582 260.113C427.109 265.715 424.183 272.616 416.878 276.436C411.164 279.423 405.115 280.698 401.944 281.2C401.453 280.454 400.642 279.946 399.721 279.902L399.71 281.491C399.704 281.491 399.701 281.491 399.701 281.491C398.627 279.235 396.538 278.078 394.496 278.078C393.116 278.078 391.759 278.608 390.749 279.685C388.249 282.356 389.36 287.302 392.602 290.221C394.29 291.742 395.676 292.174 396.707 292.174C398.074 292.174 398.818 291.413 398.818 291.413L398.845 299.655" fill="#0B584B"/>
<path d="M390.097 252.702C389.589 250.746 387.639 249.65 385.74 250.255L386.945 254.903C386.689 254.596 386.393 254.321 386.038 254.111C384.343 253.113 382.223 253.791 381.303 255.623L387.439 259.235C387.76 258.597 387.883 257.902 387.848 257.224C389.577 256.515 390.58 254.563 390.097 252.702" fill="#26B6A6"/>
<path d="M387.439 259.235L381.303 255.623C381.935 254.365 383.134 253.651 384.37 253.651C384.935 253.651 385.507 253.799 386.038 254.111C386.393 254.321 386.689 254.596 386.945 254.903L385.74 250.255C386.094 250.142 386.45 250.088 386.797 250.088C388.315 250.088 389.684 251.111 390.097 252.702C390.179 253.015 390.219 253.33 390.219 253.641C390.22 253.983 390.175 254.321 390.088 254.645C389.794 255.744 389.023 256.697 387.963 257.175C387.925 257.192 387.886 257.208 387.848 257.224C387.851 257.298 387.853 257.373 387.853 257.447C387.853 258.053 387.725 258.666 387.439 259.235" fill="#0B584B"/>
<path d="M397.538 308.277C397.538 308.277 388.429 309.568 384.94 310.697C389.816 322.656 382.165 341.126 382.165 341.126L389.382 363.342C384.405 373.554 380.288 378.618 378.602 386.915C383.191 395.881 415.612 404.44 436.717 388.096C436.717 388.096 436.035 365.398 433.345 352.171C440.26 338.69 439.132 334.735 437.721 330.034C434.438 319.102 427.801 314.895 419.887 307.192L415.115 306.69L397.538 308.277" fill="#273E47"/>
<path d="M390.219 372.248C394.131 368.23 402.435 367.085 402.435 367.085L394.818 362.74L386.275 342.14C392.202 330.748 391.408 319.472 391.408 319.472L386.511 318.297C387.104 329.192 382.165 341.126 382.165 341.126L389.382 363.342C384.405 373.554 380.288 378.618 378.602 386.915C381.742 393.054 397.927 398.995 414.594 396.894C392.259 395.402 386.448 376.12 390.219 372.248" fill="#17282F"/>
<path d="M412.779 397.091C413.084 397.062 413.388 397.025 413.691 396.992C413.439 396.998 413.145 397.026 412.779 397.091Z" fill="#E2E2E0"/>
<path d="M426.582 260.113C429.289 262.599 432.674 267.995 432.402 283.762C432.173 297.123 428.031 300.447 425.947 301.409C423.864 302.372 419.834 301.815 415.914 301.156L415.867 306.69C415.867 306.69 421.034 312.42 420.712 316.098C420.391 319.778 413.361 321.304 408.28 317.74C403.198 314.175 398.872 308.224 398.872 308.224L398.818 291.413C398.818 291.413 396.526 293.756 392.602 290.221C389.36 287.302 388.249 282.356 390.749 279.685C393.25 277.013 397.9 277.712 399.701 281.491C399.701 281.491 408.636 280.744 416.878 276.436C424.183 272.616 427.109 265.715 426.582 260.113" fill="#F8A39A"/>
<path d="M415.911 280.7C415.964 281.662 415.283 282.482 414.394 282.532C413.504 282.581 412.741 281.84 412.691 280.876C412.639 279.913 413.318 279.094 414.207 279.045C415.099 278.996 415.86 279.737 415.911 280.7Z" fill="#17282F"/>
<path d="M416.513 291.897L420.711 293.266C420.37 294.517 419.153 295.225 417.995 294.846C416.834 294.469 416.172 293.148 416.513 291.897Z" fill="#F57C6B"/>
<path d="M431.032 274.67L427.222 273.369C427.507 272.267 428.594 271.663 429.646 272.023C430.697 272.383 431.317 273.567 431.032 274.67Z" fill="#17282F"/>
<path d="M399.721 279.902L399.679 285.555C401.189 285.627 402.422 284.419 402.435 282.859C402.447 281.297 401.231 279.975 399.721 279.902Z" fill="#26B6A6"/>
<path d="M399.806 285.558C399.764 285.558 399.721 285.558 399.679 285.555L399.721 279.902C401.227 279.973 402.438 281.288 402.435 282.84C402.435 282.846 402.435 282.853 402.435 282.859C402.422 284.375 401.258 285.558 399.806 285.558" fill="#0B584B"/>
<path d="M429.714 280.148C429.766 281.109 429.085 281.928 428.196 281.978C427.306 282.027 426.543 281.286 426.493 280.324C426.441 279.361 427.12 278.542 428.01 278.493C428.899 278.444 429.664 279.185 429.714 280.148Z" fill="#17282F"/>
<path d="M420.754 277.856L420.711 288.805L425.814 287.129L420.754 277.856Z" fill="#F57C6B"/>
<path d="M415.914 301.156C411.786 300.616 403.284 298.122 401.944 294.634C401.944 294.634 402.397 296.828 404.942 299.078C407.49 301.327 415.892 303.853 415.892 303.853L415.914 301.156" fill="#F57C6B"/>
<path d="M365.584 364.221C365.584 364.221 375.678 378.558 377.416 380.434C379.152 382.309 380.332 381.685 382.209 380.851C384.084 380.016 387.648 378.95 389.226 378.558C392.311 377.794 392.976 380.642 389.92 382.674C387.71 384.143 385.179 384.784 386.237 385.991C387.296 387.195 390.563 389.307 393.602 390.504C401.052 393.442 400.476 394.917 399.105 397.33C397.909 399.431 394.428 403.96 381.101 398.61C375.604 396.404 367.861 390.13 364.209 386.083C358.941 380.247 350.722 369.789 350.722 369.789L365.584 364.221" fill="#F8A39A"/>
<path d="M386.882 310.183C383.227 310.427 376.357 311.308 367.737 325.618C360.177 338.168 348.461 355.2 346.283 361.29C345.403 363.745 348.839 368.864 353.25 374.099C359.284 373.835 364.774 369.668 367.621 366.335C366.299 363.278 364.838 361.28 364.838 361.28L382.523 341.118C382.523 341.118 389.239 334.967 390.647 326.915C392.154 318.29 391.683 311.459 386.882 310.183" fill="#33535F"/>
<path d="M485.872 337.325L442.279 348.806L430.279 398.119L471.726 386.083L485.872 337.325" fill="#26B6A6"/>
<path d="M430.279 398.119L442.279 348.806L485.872 337.325L471.726 386.083L430.279 398.119ZM466.175 372.248C466.568 373.321 469.098 377.128 473.888 377.128C474.032 377.128 474.179 377.125 474.326 377.117L474.643 376.028L466.175 372.248V372.248ZM471.465 342.781C470.436 342.781 469.005 342.99 467.386 343.408L460.964 345.074C457.608 345.943 454.728 347.393 454.53 348.31L454.171 349.973L472.741 345.158C472.741 345.158 472.901 344.415 473.101 343.496C473.203 343.021 472.568 342.781 471.465 342.781" fill="#C4E1FF"/>
<path d="M473.887 377.128C469.097 377.128 466.568 373.321 466.175 372.248L474.642 376.028L474.326 377.117C474.178 377.125 474.032 377.128 473.887 377.128" fill="#05A58D"/>
<path d="M454.171 349.973L454.53 348.31C454.728 347.393 457.608 345.943 460.964 345.074L467.386 343.408C469.005 342.99 470.436 342.781 471.465 342.781C472.568 342.781 473.203 343.021 473.101 343.496C472.901 344.415 472.741 345.158 472.741 345.158L454.171 349.973" fill="#05A58D"/>
<path d="M476.088 338.91C476.215 338.336 475.179 338.185 473.774 338.574L471.229 339.277C471.229 339.277 471.989 335.681 466.345 336.938C460.701 338.195 459.467 342.276 459.467 342.276C459.467 342.276 458.25 342.622 456.751 343.048C455.252 343.474 453.893 344.282 453.717 344.853L453.394 345.888L475.851 339.976C475.851 339.976 475.962 339.484 476.088 338.91" fill="#273E47"/>
<path d="M472.996 340.683C470.938 341.18 470.084 341.452 469.777 342.867C469.425 344.484 469.282 345.671 469.282 345.671L459.344 348.298C459.344 348.298 459.823 346.25 459.976 345.453C460.132 344.655 459.792 344.174 458.211 344.592L458.076 343.959L473.649 339.995L472.996 340.683" fill="#273E47"/>
<path d="M473.338 345.316C473.338 345.316 473.499 344.57 473.699 343.652C473.897 342.735 471.339 342.696 467.984 343.565L461.561 345.231C458.206 346.101 455.326 347.549 455.128 348.467L454.769 350.131L473.338 345.316Z" fill="#273E47"/>
<path d="M481.279 353.157C481.279 353.157 479.649 358.732 479.277 360.061C478.902 361.39 474.02 363.779 470.815 364.66C467.61 365.539 464.105 366.583 465.621 371.063C467.02 375.194 472.292 376.136 474.978 376.02C477.661 375.903 481.337 373.337 482.784 369.202C484.633 363.927 483.637 358.292 484.37 355.211C485.105 352.132 482.885 351.32 481.279 353.157Z" fill="#F8A39A"/>
<path d="M316.162 354.467C310.183 348.445 308.047 350.786 307.291 357.393C306.734 362.266 305.296 365.464 305.296 365.464C304.873 363.424 304.694 362.491 304.171 361.478C303.133 359.467 301.374 359.418 300.624 359.733C300.041 359.976 300.763 361.376 300.671 363.933C300.553 367.211 299.495 369.021 300.261 372.501C300.547 373.805 300.308 375.164 299.674 376.337C296.448 382.306 286.155 393.356 278.902 401.304C272.492 395.512 258.149 382.557 251.285 376.372C241.866 367.887 238.793 364.061 229.684 364.684C229.684 364.684 233.212 365.758 237.434 369.328C241.655 372.898 240.65 393.33 240.65 393.33C240.65 393.33 271.987 415.798 275.21 417.935C275.682 418.248 276.167 418.533 276.647 418.788C279.793 420.463 283.689 419.667 286.036 416.987C292.728 409.339 302.472 394.296 308.112 386.473C310.756 382.806 313.312 377.795 314.924 374.614C320.521 363.57 319.908 358.242 316.162 354.467Z" fill="#9B3E49"/>
<path d="M230.612 364.125C230.612 364.125 236.959 362.466 243.215 367.213C248.593 371.294 271.471 392.329 271.471 392.329C271.471 392.329 272.094 403.47 260.468 410.121L232.344 390.292L230.612 364.125" fill="#26B6A6"/>
<path d="M260.468 410.121L251.766 403.985L248.524 401.7C248.312 395.71 248.104 390.33 247.917 386.294C247.278 372.557 244.118 365.64 230.612 364.125C230.612 364.125 231.687 363.845 233.387 363.845C235.821 363.845 239.534 364.419 243.215 367.213C248.593 371.294 271.471 392.329 271.471 392.329C271.471 392.329 271.478 392.432 271.478 392.626C271.478 392.978 271.459 393.625 271.352 394.482C270.941 397.761 269.246 404.124 262.411 408.892C261.805 409.315 261.159 409.726 260.468 410.121" fill="#4F7D9E"/>
<path d="M191.578 636.972H203.487V615.741H191.578V636.972Z" fill="#9B3E49"/>
<path d="M232.873 614.607L244.776 615.034L245.372 592.564L232.873 592.137V614.607Z" fill="#9B3E49"/>
<path d="M189.901 431.915C189.901 443.758 191.645 539.071 191.645 539.071C191.367 542.479 188.3 548.762 188.963 561.852C189.866 579.631 191.068 626.357 191.068 626.357C191.068 626.357 196.851 629.874 204.33 626.629C204.33 626.629 215.595 561.913 217.729 544.293C219.592 528.915 222.752 477.14 222.752 477.14L229.208 537.341C229.208 537.341 227.012 546.513 227.732 557.051C228.289 565.202 232.119 607.647 232.119 607.647C232.119 607.647 237.725 611.608 245.871 608.744C245.871 608.744 252.646 544.818 252.784 537.341C252.941 528.814 248.823 431.788 248.823 431.788L189.901 431.915" fill="#273E47"/>
<path d="M203.487 630.85V629.076C204.628 629.593 207.277 640.113 212.002 644.601C215.758 648.17 220.883 652.29 222.187 656.269C223.542 660.407 215.05 662.69 211.539 662.044C207.462 661.291 200.393 658.301 198.619 655.53C196.844 652.757 196.014 648.668 194.571 646.636C193.129 644.604 189.807 642.337 189.026 639.986C188.599 638.693 189.107 635.865 189.709 633.474C190.26 631.282 190.859 628.87 191.578 629.076C191.581 629.343 191.578 630.428 191.578 630.428C192.443 631.426 194.834 632.416 197.533 632.525C199.275 632.594 203.503 632.233 203.487 630.85" fill="#17282F"/>
<path d="M244.903 611.208C245.521 611.232 246.025 612.139 247.389 613.677C249.037 615.534 251.733 617.54 254.395 618.927C258.854 621.251 267.525 624.827 271.449 626.668C273.902 627.819 273.785 630.902 271.253 632.657C268.719 634.412 262.6 635.676 255.254 633.965C251.252 633.033 246.042 629.184 242.743 629.391C239.446 629.599 233.277 629.551 230.844 627.803C228.409 626.056 229.382 622.325 230.071 619.119C230.822 615.62 231.761 610.162 232.873 610.403V611.608C234.304 613.866 241.694 614.784 244.839 613.124L244.903 611.208" fill="#17282F"/>
<path d="M222.752 477.14C222.752 477.14 232.272 474.347 239.338 467.237C239.338 467.237 236.137 473.477 226.62 479.283L228.655 533.045L222.752 477.14" fill="#17282F"/>
<path d="M196.097 367.315C196.097 367.315 186.777 368.167 187.439 385.92L189.499 414.199L189.305 456.635C198.064 466.557 236.892 465.831 250.184 455.839C250.184 455.839 248.816 405.62 247.917 386.294C247.279 372.557 244.118 365.64 230.613 364.125L214.005 364.857L196.097 367.315Z" fill="#3E7094"/>
<path d="M224.064 392.329L222.563 376.625L224.702 391.534L229.684 391.44L224.064 392.329" fill="#135C92"/>
<path d="M166.537 428.274C171.369 389.433 182.483 370.125 196.033 367.856L195.071 392.706C195.071 392.706 185.972 413.453 182.176 433.824C180.395 443.386 178.33 460.012 178.866 468.183C178.961 469.63 179.601 470.976 180.597 471.992C183.266 474.718 184.078 477.072 185.871 480.147C187.276 482.555 188.726 483.405 188.352 483.983C187.872 484.727 186.291 485.744 184.205 484.522C183.156 483.907 181.896 482.658 180.337 481.037C180.337 481.037 179.942 487.029 182.281 491.851C185.451 498.384 184.924 501.83 176.145 499.905C170.642 498.7 166.677 492.898 165.205 479.354C164.78 475.452 164.726 469.143 164.932 464.17C165.466 451.223 165.569 436.045 166.537 428.274" fill="#9B3E49"/>
<path d="M196.805 367.214C189.769 367.187 183.35 368.422 178.245 378.253C173.35 387.68 169.586 407.65 167.686 414.169C167.686 414.169 177.959 420.239 187.406 420.092L194.065 396.998C194.065 396.998 198.559 386.217 196.805 367.214Z" fill="#26B6A6"/>
<path d="M187.068 420.095C186.527 420.095 185.984 420.076 185.442 420.038C178.307 419.547 171.134 416.032 168.623 414.689C168.019 414.365 167.686 414.169 167.686 414.169C169.586 407.65 173.35 387.68 178.245 378.253C183.298 368.524 189.637 367.214 196.588 367.214C196.661 367.214 196.733 367.214 196.805 367.214C197.092 370.312 197.211 373.194 197.211 375.844C197.213 389.447 194.065 396.998 194.065 396.998L189.42 413.109L187.406 420.092C187.293 420.095 187.182 420.095 187.068 420.095" fill="#4F7D9E"/>
<path d="M211.316 327.228C211.316 337.426 219.255 345.693 229.047 345.693C238.841 345.693 246.778 337.426 246.778 327.228C246.778 317.031 238.841 308.763 229.047 308.763C219.255 308.763 211.316 317.031 211.316 327.228Z" fill="#17282F"/>
<path d="M200.036 336.466C200.036 336.466 202.756 349.771 203.846 351.957C204.938 354.143 207.19 354.765 207.19 354.765L207 345.405L200.036 336.466" fill="#17282F"/>
<path d="M203.449 317.405C203.449 317.405 201.499 316.916 199.427 320.152C197.651 322.927 197.249 329.158 200.036 336.466L205.159 337.078L203.449 317.405" fill="#17282F"/>
<path d="M206.695 337.083C205.669 337.721 204.203 335.666 202.937 334.286C201.669 332.906 197.534 331.02 195.471 335.546C193.37 340.159 197.291 346.255 200.547 347.318C206.158 349.153 207 345.405 207 345.405L207.429 366.48C214.878 378 231.75 377.583 225.684 365.923L225.669 359.508C225.669 359.508 230.751 360.311 233.232 359.914C237.359 359.248 239.955 355.859 241.205 351.207C243.216 343.737 243.98 337.705 242.275 323.013C240.405 306.91 222.419 306.742 212.705 313.108C202.992 319.475 206.695 337.083 206.695 337.083" fill="#9B3E49"/>
<path d="M207.333 361.755C207.333 361.755 209.954 367.42 214.627 370.894C218.925 374.087 223.455 374.645 223.455 374.645C223.455 374.645 219.084 377.539 217.227 381.636C215.37 385.733 202.263 374.453 202.38 366.451C202.38 366.451 204.437 358.415 207.254 357.899L207.333 361.755" fill="#17282F"/>
<path d="M223.455 374.645C223.455 374.645 227.496 372.637 225.684 365.923L225.668 359.508L227.438 359.745C228.817 360.986 230.987 363.908 231.698 367.121C232.102 368.957 233.099 378.264 231.323 380.112C229.708 381.795 227.076 375.145 223.455 374.645Z" fill="#17282F"/>
<path d="M206.696 338.882C206.179 338.893 204.214 335.497 202.937 334.286C201.164 332.607 203.449 317.405 203.449 317.405C203.449 317.405 201.747 313.626 205.159 309.714C207.586 306.934 211.643 306.624 218.569 305.492C221.267 305.05 224.149 304.756 226.779 304.012C229.596 303.214 232.366 301.346 234.988 300.016C235.857 299.577 236.827 299.124 237.766 299.377C238.669 299.619 239.298 300.481 239.531 301.385C239.766 302.29 239.676 303.243 239.585 304.172C241.189 302.401 244.324 302.661 245.963 304.4C247.601 306.14 247.827 308.895 246.959 311.12C246.089 313.346 244.293 315.098 242.312 316.435C233.607 322.309 223.334 320.678 213.591 319.525C213.123 319.468 212.63 319.423 212.202 319.616C210.677 320.308 210.35 325.047 210.083 326.415C209.18 331.029 208.431 338.847 206.696 338.882Z" fill="#17282F"/>
<path d="M203.459 318.207L197.249 314.735C198.129 312.882 200.236 312.157 201.95 313.116C203.665 314.074 204.341 316.353 203.459 318.207Z" fill="#17282F"/>
<path d="M225.668 359.508C225.668 359.508 216.457 357.577 213.237 355.795C211.082 354.601 209.307 352.533 208.785 351.207C208.785 351.207 209.389 354.054 211.315 356.617C213.669 359.752 225.668 362.06 225.668 362.06V359.508Z" fill="#802933"/>
<path d="M222.335 334.137C222.335 335.239 221.509 336.131 220.49 336.128C219.471 336.126 218.645 335.228 218.645 334.126C218.645 333.023 219.471 332.132 220.49 332.135C221.509 332.138 222.335 333.034 222.335 334.137Z" fill="#17282F"/>
<path d="M219.167 326.149L215.217 328.417C214.635 327.236 215.049 325.77 216.138 325.144C217.229 324.517 218.585 324.968 219.167 326.149Z" fill="#17282F"/>
<path d="M224.835 347.963L229.047 349.609C228.63 350.866 227.35 351.517 226.186 351.062C225.022 350.608 224.418 349.219 224.835 347.963" fill="#802933"/>
<path d="M240.776 328.351L236.625 326.33C237.104 325.121 238.421 324.592 239.568 325.151C240.713 325.709 241.254 327.142 240.776 328.351Z" fill="#17282F"/>
<path d="M238.039 334.137C238.039 335.239 237.213 336.133 236.192 336.128C235.173 336.126 234.347 335.23 234.347 334.126C234.347 333.023 235.173 332.132 236.192 332.135C237.213 332.138 238.039 333.034 238.039 334.137Z" fill="#17282F"/>
<path d="M227.581 332.709L227.795 344.366L234.413 342.848L227.581 332.709Z" fill="#802933"/>
<path d="M214.036 333.928C214.036 330.87 216.477 328.384 219.479 328.384H220.32C223.32 328.384 225.763 330.87 225.763 333.928C225.763 336.985 223.32 339.472 220.32 339.472H219.479C216.477 339.472 214.036 336.985 214.036 333.928ZM219.479 329.318C216.984 329.318 214.953 331.386 214.953 333.928C214.953 336.471 216.984 338.537 219.479 338.537H220.32C222.815 338.537 224.844 336.471 224.844 333.928C224.844 331.386 222.815 329.318 220.32 329.318H219.479Z" fill="#17282F"/>
<path d="M230.631 333.928C230.631 330.87 233.073 328.384 236.074 328.384H236.916C239.915 328.384 242.357 330.87 242.357 333.928C242.357 336.985 239.915 339.472 236.916 339.472H236.074C233.073 339.472 230.631 336.985 230.631 333.928ZM236.074 329.318C233.579 329.318 231.548 331.386 231.548 333.928C231.548 336.471 233.579 338.537 236.074 338.537H236.916C239.409 338.537 241.44 336.471 241.44 333.928C241.44 331.386 239.409 329.318 236.916 329.318H236.074Z" fill="#17282F"/>
<path d="M225.695 332.833C226.198 331.992 227.326 331.407 228.57 331.341C229.64 331.286 230.585 331.646 231.078 332.306L231.809 331.74C231.123 330.82 229.928 330.334 228.523 330.408C226.961 330.488 225.579 331.232 224.912 332.347L225.695 332.833" fill="#17282F"/>
<path d="M205.159 333.723H214.541V332.789H205.159V333.723Z" fill="#17282F"/>
</g>
<defs>
<clipPath id="clip0">
<rect width="708" height="708" fill="white"/>
</clipPath>
</defs>
</svg>
