<svg width="40" height="40" viewBox="0 0 40 40" fill="none" xmlns="http://www.w3.org/2000/svg">
<g clip-path="url(#clip0)">
<path d="M38.9694 29.5145L33.998 24.542C32.6716 23.2156 30.3542 23.2134 29.0256 24.542L28.1966 25.371L38.1407 35.3146L38.9694 34.4859C40.3458 33.1093 40.3412 30.884 38.9694 29.5145Z" fill="#36BEEC"/>
<path d="M26.4934 26.9821C25.4473 27.7925 23.955 27.7601 22.9991 26.8022L13.1697 16.9659C12.2116 16.0079 12.1794 14.5144 12.9897 13.4709L3.06858 3.55029C-1.19947 8.52529 -1.03259 16.0216 3.67795 20.7322L19.2329 36.2939C23.7532 40.8141 31.1575 41.4136 36.4151 36.903L26.4934 26.9821Z" fill="#36BEEC"/>
<path d="M15.4299 5.96808L10.4586 0.995654C9.13216 -0.330752 6.81474 -0.333017 5.48615 0.995654L4.65717 1.82464L14.6012 11.7682L15.4299 10.9394C16.8063 9.563 16.8018 7.33768 15.4299 5.96808Z" fill="#36BEEC"/>
</g>
<defs>
<clipPath id="clip0">
<rect width="40" height="40" fill="white"/>
</clipPath>
</defs>
</svg>
