<svg width="75" height="279" viewBox="0 0 75 279" fill="none" xmlns="http://www.w3.org/2000/svg">
<path d="M2.80524 237.732L71.2118 277.225V198.237L2.80524 237.732Z" fill="#36BEEC"/>
<path d="M71.2117 172.168L71.8698 171.029L1.48944 130.392L1.48944 213.941L73.8434 172.168L71.8698 171.029L71.2117 172.168L70.5539 171.029L4.12102 209.384V134.95L70.5539 173.308L71.2117 172.168L70.5539 171.029L71.2117 172.168Z" fill="#3E7094"/>
<path d="M2.80524 109.268L71.2118 148.766V69.7761L2.80524 109.268Z" fill="#36BEEC"/>
<path d="M71.2117 43.7052L71.8698 42.5658L1.48944 1.9342L1.48944 85.4815L73.8434 43.7052L71.8698 42.5658L71.2117 43.7052L70.5539 42.5658L4.12102 80.9235V6.49205L70.5539 44.8446L71.2117 43.7052L70.5539 42.5658L71.2117 43.7052Z" fill="#3E7094"/>
</svg>
